Amatic.ufo
<glyph name="exclam" format="1">
  <advance width="520"></advance>
  <unicode hex="0021"></unicode>
  <outline>
    <contour>
      <point x="195" y="39" type="curve"></point>
      <point x="195" y="66"></point>
      <point x="230" y="102"></point>
      <point x="257" y="102" type="curve" smooth="yes"></point>
      <point x="300" y="102"></point>
      <point x="318" y="66"></point>
      <point x="318" y="27" type="curve" smooth="yes"></point>
      <point x="318" y="-6"></point>
      <point x="300" y="-25"></point>
      <point x="267" y="-27" type="curve"></point>
      <point x="259" y="-2"></point>
      <point x="232" y="-35"></point>
    </contour>
    <contour>
      <point x="252" y="330" type="curve" smooth="yes"></point>
      <point x="252" y="821" type="line" smooth="yes"></point>
      <point x="252" y="938"></point>
      <point x="257" y="1054"></point>
      <point x="257" y="1171" type="curve" smooth="yes"></point>
      <point x="257" y="1282"></point>
      <point x="242" y="1387"></point>
      <point x="242" y="1493" type="curve" smooth="yes"></point>
      <point x="242" y="1522"></point>
      <point x="279" y="1548"></point>
      <point x="306" y="1548" type="curve" smooth="yes"></point>
      <point x="322" y="1548"></point>
      <point x="332" y="1538"></point>
      <point x="332" y="1522" type="curve" smooth="yes"></point>
      <point x="332" y="1194"></point>
      <point x="289" y="871"></point>
      <point x="289" y="543" type="curve" smooth="yes"></point>
      <point x="289" y="518"></point>
      <point x="291" y="486"></point>
      <point x="291" y="453" type="curve" smooth="yes"></point>
      <point x="291" y="408"></point>
      <point x="287" y="361"></point>
      <point x="275" y="332" type="curve"></point>
      <point x="281" y="322" type="line"></point>
      <point x="254" y="322" type="line"></point>
      <point x="254" y="324"></point>
      <point x="252" y="328"></point>
    </contour>
  </outline>
</glyph>
<glyph name="quotedbl" format="1">
  <advance width="680"></advance>
  <unicode hex="0022"></unicode>
  <outline>
    <contour>
      <point x="203" y="1262" type="curve"></point>
      <point x="207" y="1291"></point>
      <point x="207" y="1335"></point>
      <point x="207" y="1384" type="curve" smooth="yes"></point>
      <point x="207" y="1401" type="line" smooth="yes"></point>
      <point x="207" y="1489"></point>
      <point x="209" y="1575"></point>
      <point x="229" y="1575" type="curve" smooth="yes"></point>
      <point x="258" y="1575"></point>
      <point x="277" y="1536"></point>
      <point x="277" y="1497" type="curve" smooth="yes"></point>
      <point x="277" y="1431"></point>
      <point x="238" y="1257"></point>
      <point x="211" y="1257" type="curve" smooth="yes"></point>
      <point x="209" y="1257"></point>
      <point x="205" y="1260"></point>
    </contour>
    <contour>
      <point x="440" y="1257" type="curve" smooth="yes"></point>
      <point x="417" y="1292"></point>
      <point x="414" y="1352"></point>
      <point x="414" y="1409" type="curve" smooth="yes"></point>
      <point x="414" y="1505"></point>
      <point x="414" y="1575"></point>
      <point x="455" y="1575" type="curve" smooth="yes"></point>
      <point x="471" y="1575"></point>
      <point x="481" y="1536"></point>
      <point x="481" y="1497" type="curve" smooth="yes"></point>
      <point x="481" y="1436"></point>
      <point x="461" y="1255"></point>
      <point x="447" y="1255" type="curve" smooth="yes"></point>
      <point x="445" y="1255"></point>
      <point x="442" y="1255"></point>
    </contour>
  </outline>
</glyph>
<glyph name="numbersign" format="1">
  <advance width="820"></advance>
  <unicode hex="0023"></unicode>
  <outline>
    <contour>
      <point x="459" y="-37" type="curve" smooth="yes"></point>
      <point x="459" y="49"></point>
      <point x="486" y="133"></point>
      <point x="486" y="219" type="curve" smooth="yes"></point>
      <point x="486" y="348"></point>
      <point x="525" y="473"></point>
      <point x="525" y="602" type="curve"></point>
      <point x="470" y="608"></point>
      <point x="414" y="608"></point>
      <point x="359" y="608" type="curve" smooth="yes"></point>
      <point x="334" y="608"></point>
      <point x="310" y="608"></point>
      <point x="287" y="600" type="curve"></point>
      <point x="258" y="391"></point>
      <point x="236" y="-57"></point>
      <point x="199" y="-57" type="curve" smooth="yes"></point>
      <point x="189" y="-57"></point>
      <point x="165" y="-51"></point>
      <point x="165" y="-37" type="curve" smooth="yes"></point>
      <point x="165" y="57"></point>
      <point x="177" y="152"></point>
      <point x="187" y="244" type="curve" smooth="yes"></point>
      <point x="201" y="363"></point>
      <point x="215" y="483"></point>
      <point x="240" y="600" type="curve"></point>
      <point x="211" y="600"></point>
      <point x="183" y="592"></point>
      <point x="152" y="592" type="curve" smooth="yes"></point>
      <point x="123" y="592"></point>
      <point x="91" y="598"></point>
      <point x="91" y="635" type="curve" smooth="yes"></point>
      <point x="91" y="653"></point>
      <point x="123" y="655"></point>
      <point x="160" y="655" type="curve" smooth="yes"></point>
      <point x="203" y="655" type="line" smooth="yes"></point>
      <point x="219" y="655"></point>
      <point x="234" y="655"></point>
      <point x="244" y="657" type="curve"></point>
      <point x="252" y="675"></point>
      <point x="281" y="936"></point>
      <point x="281" y="971" type="curve"></point>
      <point x="258" y="971"></point>
      <point x="237" y="967"></point>
      <point x="212" y="967" type="curve" smooth="yes"></point>
      <point x="187" y="967"></point>
      <point x="134" y="969"></point>
      <point x="132" y="1004" type="curve"></point>
      <point x="148" y="1022" type="line"></point>
      <point x="191" y="1022" type="line" smooth="yes"></point>
      <point x="226" y="1022"></point>
      <point x="268" y="1023"></point>
      <point x="285" y="1028" type="curve"></point>
      <point x="301" y="1169"></point>
      <point x="332" y="1313"></point>
      <point x="332" y="1456" type="curve" smooth="yes"></point>
      <point x="332" y="1470"></point>
      <point x="330" y="1483"></point>
      <point x="330" y="1497" type="curve" smooth="yes"></point>
      <point x="330" y="1517"></point>
      <point x="334" y="1542"></point>
      <point x="361" y="1542" type="curve"></point>
      <point x="375" y="1513" type="line"></point>
      <point x="375" y="1353"></point>
      <point x="339" y="1198"></point>
      <point x="339" y="1038" type="curve"></point>
      <point x="368" y="1030"></point>
      <point x="396" y="1030"></point>
      <point x="427" y="1030" type="curve" smooth="yes"></point>
      <point x="453" y="1030" type="line" smooth="yes"></point>
      <point x="489" y="1030"></point>
      <point x="528" y="1031"></point>
      <point x="562" y="1044" type="curve"></point>
      <point x="595" y="1204"></point>
      <point x="626" y="1364"></point>
      <point x="638" y="1526" type="curve"></point>
      <point x="646" y="1536"></point>
      <point x="656" y="1542"></point>
      <point x="668" y="1542" type="curve" smooth="yes"></point>
      <point x="678" y="1542"></point>
      <point x="689" y="1532"></point>
      <point x="693" y="1522" type="curve"></point>
      <point x="691" y="1362"></point>
      <point x="619" y="1215"></point>
      <point x="619" y="1055" type="curve"></point>
      <point x="623" y="1044" type="line"></point>
      <point x="699" y="1044" type="line"></point>
      <point x="726" y="1016" type="line"></point>
      <point x="722" y="1006"></point>
      <point x="713" y="983"></point>
      <point x="699" y="983" type="curve" smooth="yes"></point>
      <point x="670" y="983"></point>
      <point x="642" y="987"></point>
      <point x="613" y="987" type="curve"></point>
      <point x="588" y="889"></point>
      <point x="582" y="778"></point>
      <point x="582" y="678" type="curve"></point>
      <point x="593" y="674" type="line"></point>
      <point x="603" y="674"></point>
      <point x="617" y="676"></point>
      <point x="631" y="676" type="curve" smooth="yes"></point>
      <point x="660" y="676"></point>
      <point x="689" y="670"></point>
      <point x="689" y="637" type="curve" smooth="yes"></point>
      <point x="689" y="623"></point>
      <point x="666" y="614"></point>
      <point x="656" y="610" type="curve"></point>
      <point x="576" y="610" type="line"></point>
      <point x="560" y="397"></point>
      <point x="519" y="184"></point>
      <point x="519" y="-31" type="curve"></point>
      <point x="496" y="-57" type="line"></point>
      <point x="484" y="-57"></point>
      <point x="459" y="-53"></point>
    </contour>
    <contour>
      <point x="298" y="666" type="curve"></point>
      <point x="310" y="664"></point>
      <point x="320" y="662"></point>
      <point x="332" y="662" type="curve" smooth="yes"></point>
      <point x="395" y="662"></point>
      <point x="460" y="662"></point>
      <point x="521" y="670" type="curve"></point>
      <point x="537" y="766"></point>
      <point x="558" y="865"></point>
      <point x="558" y="963" type="curve" smooth="yes"></point>
      <point x="558" y="983"></point>
      <point x="449" y="983"></point>
      <point x="400" y="983" type="curve" smooth="yes"></point>
      <point x="375" y="983"></point>
      <point x="350" y="981"></point>
      <point x="332" y="971" type="curve"></point>
      <point x="316" y="934"></point>
      <point x="296" y="723"></point>
      <point x="296" y="674" type="curve" smooth="yes"></point>
      <point x="296" y="672"></point>
      <point x="298" y="668"></point>
    </contour>
  </outline>
</glyph>
<glyph name="dollar" format="1">
  <advance width="720"></advance>
  <unicode hex="0024"></unicode>
  <outline>
    <contour>
      <point x="365" y="23" type="curve"></point>
      <point x="374" y="29" type="line"></point>
      <point x="374" y="164" type="line"></point>
      <point x="367" y="170" type="line"></point>
      <point x="332" y="170"></point>
      <point x="298" y="170"></point>
      <point x="265" y="166" type="curve"></point>
      <point x="232" y="189"></point>
      <point x="193" y="225"></point>
      <point x="193" y="268" type="curve" smooth="yes"></point>
      <point x="193" y="280"></point>
      <point x="200" y="289"></point>
      <point x="212" y="289" type="curve" smooth="yes"></point>
      <point x="216" y="289" type="line"></point>
      <point x="267" y="258"></point>
      <point x="224" y="205"></point>
      <point x="312" y="205" type="curve" smooth="yes"></point>
      <point x="330" y="205"></point>
      <point x="352" y="207"></point>
      <point x="370" y="213" type="curve"></point>
      <point x="370" y="336"></point>
      <point x="326" y="789"></point>
      <point x="316" y="881" type="curve" smooth="yes"></point>
      <point x="312" y="918"></point>
      <point x="179" y="1130"></point>
      <point x="179" y="1300" type="curve" smooth="yes"></point>
      <point x="179" y="1355"></point>
      <point x="201" y="1522"></point>
      <point x="277" y="1522" type="curve"></point>
      <point x="277" y="1551"></point>
      <point x="269" y="1579"></point>
      <point x="269" y="1610" type="curve" smooth="yes"></point>
      <point x="269" y="1628"></point>
      <point x="271" y="1663"></point>
      <point x="298" y="1663" type="curve"></point>
      <point x="314" y="1645" type="line"></point>
      <point x="312" y="1631"></point>
      <point x="312" y="1613"></point>
      <point x="312" y="1599" type="curve" smooth="yes"></point>
      <point x="312" y="1560"></point>
      <point x="318" y="1524"></point>
      <point x="345" y="1524" type="curve" smooth="yes"></point>
      <point x="374" y="1524"></point>
      <point x="398" y="1508"></point>
      <point x="423" y="1479" type="curve" smooth="yes"></point>
      <point x="431" y="1471"></point>
      <point x="474" y="1425"></point>
      <point x="474" y="1417" type="curve" smooth="yes"></point>
      <point x="474" y="1403"></point>
      <point x="461" y="1379"></point>
      <point x="449" y="1391" type="curve" smooth="yes"></point>
      <point x="408" y="1432"></point>
      <point x="409" y="1479"></point>
      <point x="329" y="1487" type="curve"></point>
      <point x="322" y="1470" type="line"></point>
      <point x="322" y="1417"></point>
      <point x="329" y="1362"></point>
      <point x="329" y="1309" type="curve" smooth="yes"></point>
      <point x="329" y="1243"></point>
      <point x="356" y="917"></point>
      <point x="376" y="870" type="curve"></point>
      <point x="411" y="776"></point>
      <point x="536" y="571"></point>
      <point x="550" y="403" type="curve"></point>
      <point x="550" y="284"></point>
      <point x="500" y="247"></point>
      <point x="410" y="184" type="curve"></point>
      <point x="410" y="145"></point>
      <point x="419" y="107"></point>
      <point x="419" y="68" type="curve" smooth="yes"></point>
      <point x="419" y="45"></point>
      <point x="417" y="-18"></point>
      <point x="384" y="-18" type="curve" smooth="yes"></point>
      <point x="370" y="-18"></point>
      <point x="365" y="13"></point>
    </contour>
    <contour>
      <point x="406" y="240" type="curve"></point>
      <point x="408" y="236" type="line"></point>
      <point x="461" y="261"></point>
      <point x="505" y="328"></point>
      <point x="505" y="387" type="curve" smooth="yes"></point>
      <point x="505" y="457"></point>
      <point x="425" y="700"></point>
      <point x="372" y="776" type="curve"></point>
      <point x="372" y="596"></point>
      <point x="406" y="420"></point>
    </contour>
    <contour>
      <point x="226" y="1288" type="curve" smooth="yes"></point>
      <point x="226" y="1190"></point>
      <point x="263" y="1079"></point>
      <point x="304" y="989" type="curve"></point>
      <point x="304" y="985"></point>
      <point x="306" y="983"></point>
      <point x="310" y="981" type="curve"></point>
      <point x="306" y="1145"></point>
      <point x="281" y="1309"></point>
      <point x="273" y="1473" type="curve"></point>
      <point x="242" y="1467"></point>
      <point x="226" y="1317"></point>
    </contour>
  </outline>
</glyph>
<glyph name="percent" format="1">
  <advance width="1260"></advance>
  <unicode hex="0025"></unicode>
  <outline>
    <contour>
      <point x="343" y="723" type="curve" smooth="yes"></point>
      <point x="173" y="723"></point>
      <point x="171" y="1065"></point>
      <point x="171" y="1180" type="curve" smooth="yes"></point>
      <point x="171" y="1188" type="line" smooth="yes"></point>
      <point x="171" y="1251"></point>
      <point x="208" y="1552"></point>
      <point x="317" y="1552" type="curve" smooth="yes"></point>
      <point x="321" y="1552" type="line" smooth="yes"></point>
      <point x="343" y="1552"></point>
      <point x="422" y="1549"></point>
      <point x="458" y="1477" type="curve"></point>
      <point x="507" y="1393"></point>
      <point x="521" y="1253"></point>
      <point x="521" y="1159" type="curve"></point>
      <point x="517" y="1153" type="line"></point>
      <point x="517" y="1120"></point>
      <point x="521" y="1092"></point>
      <point x="521" y="1059" type="curve" smooth="yes"></point>
      <point x="521" y="967"></point>
      <point x="511" y="723"></point>
    </contour>
    <contour>
      <point x="226" y="1065" type="curve" smooth="yes"></point>
      <point x="226" y="1022"></point>
      <point x="239" y="776"></point>
      <point x="339" y="776" type="curve" smooth="yes"></point>
      <point x="466" y="776"></point>
      <point x="474" y="999"></point>
      <point x="474" y="1071" type="curve" smooth="yes"></point>
      <point x="474" y="1161"></point>
      <point x="458" y="1237"></point>
      <point x="458" y="1327" type="curve"></point>
      <point x="454" y="1346" type="line"></point>
      <point x="454" y="1426"></point>
      <point x="399" y="1497"></point>
      <point x="323" y="1497" type="curve" smooth="yes"></point>
      <point x="247" y="1497"></point>
      <point x="239" y="1272"></point>
      <point x="231" y="1231" type="curve"></point>
      <point x="231" y="1215"></point>
      <point x="222" y="1196"></point>
      <point x="222" y="1178" type="curve" smooth="yes"></point>
      <point x="222" y="1141"></point>
      <point x="226" y="1104"></point>
    </contour>
    <contour>
      <point x="939" y="815" type="curve" smooth="yes"></point>
      <point x="1107" y="815"></point>
      <point x="1117" y="571"></point>
      <point x="1117" y="479" type="curve" smooth="yes"></point>
      <point x="1117" y="446"></point>
      <point x="1113" y="418"></point>
      <point x="1113" y="385" type="curve"></point>
      <point x="1117" y="379" type="line"></point>
      <point x="1117" y="254"></point>
      <point x="1090" y="27"></point>
      <point x="912" y="27" type="curve" smooth="yes"></point>
      <point x="801" y="27"></point>
      <point x="767" y="295"></point>
      <point x="767" y="350" type="curve" smooth="yes"></point>
      <point x="767" y="358" type="line" smooth="yes"></point>
      <point x="767" y="475"></point>
      <point x="769" y="815"></point>
    </contour>
    <contour>
      <point x="822" y="475" type="curve" smooth="yes"></point>
      <point x="822" y="438"></point>
      <point x="818" y="402"></point>
      <point x="818" y="367" type="curve" smooth="yes"></point>
      <point x="818" y="349"></point>
      <point x="826" y="329"></point>
      <point x="826" y="313" type="curve"></point>
      <point x="834" y="280"></point>
      <point x="843" y="94"></point>
      <point x="917" y="94" type="curve" smooth="yes"></point>
      <point x="1054" y="94"></point>
      <point x="1064" y="273"></point>
      <point x="1064" y="403" type="curve" smooth="yes"></point>
      <point x="1064" y="469" type="line" smooth="yes"></point>
      <point x="1064" y="539"></point>
      <point x="1056" y="758"></point>
      <point x="933" y="758" type="curve" smooth="yes"></point>
      <point x="835" y="758"></point>
      <point x="822" y="520"></point>
    </contour>
    <contour>
      <point x="847" y="1505" type="curve" smooth="yes"></point>
      <point x="847" y="1489"></point>
      <point x="810" y="1337"></point>
      <point x="806" y="1317" type="curve" smooth="yes"></point>
      <point x="732" y="977"></point>
      <point x="653" y="641"></point>
      <point x="575" y="299" type="curve" smooth="yes"></point>
      <point x="534" y="121" type="line" smooth="yes"></point>
      <point x="524" y="78"></point>
      <point x="517" y="-2"></point>
      <point x="474" y="-6" type="curve"></point>
      <point x="462" y="2"></point>
      <point x="454" y="17"></point>
      <point x="454" y="31" type="curve" smooth="yes"></point>
      <point x="454" y="129"></point>
      <point x="498" y="268"></point>
      <point x="525" y="387" type="curve" smooth="yes"></point>
      <point x="605" y="741"></point>
      <point x="689" y="1096"></point>
      <point x="781" y="1448" type="curve" smooth="yes"></point>
      <point x="785" y="1460"></point>
      <point x="800" y="1532"></point>
      <point x="816" y="1532" type="curve" smooth="yes"></point>
      <point x="832" y="1532"></point>
      <point x="847" y="1523"></point>
    </contour>
  </outline>
</glyph>
<glyph name="ampersand" format="1">
  <advance width="942"/>
  <unicode hex="0026"/>
  <outline>
    <contour>
      <point x="352" y="219" type="curve" smooth="yes"/>
      <point x="200" y="219"/>
      <point x="92" y="395"/>
      <point x="92" y="532" type="curve" smooth="yes"/>
      <point x="92" y="790"/>
      <point x="161" y="899"/>
      <point x="274" y="1118" type="curve"/>
      <point x="274" y="1214"/>
      <point x="260" y="1309"/>
      <point x="260" y="1405" type="curve" smooth="yes"/>
      <point x="260" y="1575" type="line" smooth="yes"/>
      <point x="260" y="1614"/>
      <point x="275" y="1704"/>
      <point x="326" y="1704" type="curve" smooth="yes"/>
      <point x="379" y="1704"/>
      <point x="481" y="1662"/>
      <point x="481" y="1599" type="curve" smooth="yes"/>
      <point x="481" y="1558"/>
      <point x="475" y="1518"/>
      <point x="475" y="1477" type="curve" smooth="yes"/>
      <point x="475" y="1469"/>
      <point x="475" y="1460"/>
      <point x="477" y="1452" type="curve"/>
      <point x="446" y="1366"/>
      <point x="420" y="1274"/>
      <point x="377" y="1194" type="curve" smooth="yes"/>
      <point x="359" y="1159"/>
      <point x="322" y="1126"/>
      <point x="322" y="1085" type="curve" smooth="yes"/>
      <point x="322" y="972"/>
      <point x="467" y="414"/>
      <point x="569" y="383" type="curve"/>
      <point x="632" y="510"/>
      <point x="647" y="639"/>
      <point x="647" y="780" type="curve" smooth="yes"/>
      <point x="647" y="835"/>
      <point x="616" y="796"/>
      <point x="598" y="825" type="curve"/>
      <point x="600" y="829" type="line"/>
      <point x="596" y="842" type="line"/>
      <point x="602" y="852" type="line"/>
      <point x="641" y="852"/>
      <point x="792" y="865"/>
      <point x="823" y="877" type="curve"/>
      <point x="839" y="875"/>
      <point x="858" y="864"/>
      <point x="858" y="846" type="curve" smooth="yes"/>
      <point x="858" y="823"/>
      <point x="791" y="813"/>
      <point x="756" y="813" type="curve" smooth="yes"/>
      <point x="740" y="813"/>
      <point x="723" y="815"/>
      <point x="707" y="815" type="curve" smooth="yes"/>
      <point x="694" y="815" type="line"/>
      <point x="694" y="620"/>
      <point x="680" y="493"/>
      <point x="606" y="348" type="curve"/>
      <point x="645" y="303"/>
      <point x="703" y="266"/>
      <point x="764" y="266" type="curve" smooth="yes"/>
      <point x="789" y="266"/>
      <point x="815" y="272"/>
      <point x="840" y="272" type="curve"/>
      <point x="862" y="254" type="line"/>
      <point x="862" y="221"/>
      <point x="793" y="221"/>
      <point x="770" y="221" type="curve" smooth="yes"/>
      <point x="698" y="221"/>
      <point x="639" y="262"/>
      <point x="584" y="303" type="curve"/>
      <point x="504" y="248"/>
      <point x="452" y="219"/>
    </contour>
    <contour>
      <point x="137" y="569" type="curve" smooth="yes"/>
      <point x="137" y="426"/>
      <point x="199" y="258"/>
      <point x="367" y="258" type="curve" smooth="yes"/>
      <point x="408" y="258"/>
      <point x="539" y="291"/>
      <point x="543" y="340" type="curve"/>
      <point x="531" y="360"/>
      <point x="518" y="371"/>
      <point x="502" y="387" type="curve" smooth="yes"/>
      <point x="406" y="485"/>
      <point x="336" y="717"/>
      <point x="309" y="850" type="curve" smooth="yes"/>
      <point x="297" y="909"/>
      <point x="299" y="969"/>
      <point x="281" y="1026" type="curve"/>
      <point x="185" y="901"/>
      <point x="137" y="727"/>
    </contour>
    <contour>
      <point x="764" y="629" type="line"/>
      <point x="766" y="629"/>
      <point x="766" y="629"/>
      <point x="766" y="627" type="curve"/>
    </contour>
    <contour>
      <point x="313" y="1315" type="line"/>
      <point x="309" y="1303"/>
      <point x="309" y="1292"/>
      <point x="309" y="1280" type="curve" smooth="yes"/>
      <point x="309" y="1249"/>
      <point x="315" y="1221"/>
      <point x="315" y="1190" type="curve"/>
      <point x="364" y="1235"/>
      <point x="436" y="1460"/>
      <point x="436" y="1530" type="curve" smooth="yes"/>
      <point x="436" y="1581"/>
      <point x="428" y="1653"/>
      <point x="360" y="1653" type="curve" smooth="yes"/>
      <point x="340" y="1653"/>
      <point x="307" y="1597"/>
      <point x="307" y="1579" type="curve" smooth="yes"/>
      <point x="309" y="1325" type="line"/>
    </contour>
  </outline>
</glyph>
<glyph name="parenright" format="1">
  <advance width="720"></advance>
  <unicode hex="0029"></unicode>
  <outline>
    <contour>
      <point x="542" y="817" type="curve" smooth="yes"></point>
      <point x="542" y="649"></point>
      <point x="518" y="483"></point>
      <point x="479" y="319" type="curve" smooth="yes"></point>
      <point x="459" y="231"></point>
      <point x="341" y="-279"></point>
      <point x="257" y="-279" type="curve" smooth="yes"></point>
      <point x="243" y="-279"></point>
      <point x="227" y="-270"></point>
      <point x="227" y="-254" type="curve" smooth="yes"></point>
      <point x="227" y="-236"></point>
      <point x="286" y="-141"></point>
      <point x="311" y="-78" type="curve"></point>
      <point x="409" y="182"></point>
      <point x="487" y="536"></point>
      <point x="487" y="817" type="curve" smooth="yes"></point>
      <point x="487" y="1012"></point>
      <point x="461" y="1239"></point>
      <point x="395" y="1423" type="curve" smooth="yes"></point>
      <point x="372" y="1486"></point>
      <point x="323" y="1540"></point>
      <point x="323" y="1610" type="curve"></point>
      <point x="343" y="1626" type="line"></point>
      <point x="464" y="1622"></point>
      <point x="542" y="934"></point>
    </contour>
  </outline>
</glyph>
<glyph name="asterisk" format="1">
  <advance width="880"></advance>
  <unicode hex="002A"></unicode>
  <outline>
    <contour>
      <point x="504" y="1120" type="curve" smooth="yes"></point>
      <point x="479" y="1120" type="line" smooth="yes"></point>
      <point x="464" y="1120"></point>
      <point x="448" y="1119"></point>
      <point x="440" y="1114" type="curve"></point>
      <point x="442" y="1063"></point>
      <point x="598" y="801"></point>
      <point x="598" y="754" type="curve" smooth="yes"></point>
      <point x="598" y="738"></point>
      <point x="583" y="725"></point>
      <point x="569" y="725" type="curve" smooth="yes"></point>
      <point x="522" y="725"></point>
      <point x="522" y="802"></point>
      <point x="512" y="831" type="curve"></point>
      <point x="479" y="909"></point>
      <point x="442" y="989"></point>
      <point x="401" y="1065" type="curve"></point>
      <point x="391" y="1051"></point>
      <point x="383" y="1028"></point>
      <point x="377" y="1012" type="curve" smooth="yes"></point>
      <point x="297" y="823" type="line" smooth="yes"></point>
      <point x="283" y="788"></point>
      <point x="272" y="750"></point>
      <point x="254" y="719" type="curve"></point>
      <point x="227" y="715" type="line"></point>
      <point x="198" y="745" type="line"></point>
      <point x="198" y="794"></point>
      <point x="344" y="1028"></point>
      <point x="360" y="1118" type="curve"></point>
      <point x="354" y="1120"></point>
      <point x="344" y="1122"></point>
      <point x="338" y="1122" type="curve" smooth="yes"></point>
      <point x="106" y="1122" type="line" smooth="yes"></point>
      <point x="96" y="1122"></point>
      <point x="85" y="1120"></point>
      <point x="73" y="1120" type="curve" smooth="yes"></point>
      <point x="55" y="1120"></point>
      <point x="51" y="1137"></point>
      <point x="51" y="1153" type="curve" smooth="yes"></point>
      <point x="51" y="1167"></point>
      <point x="61" y="1178"></point>
      <point x="73" y="1178" type="curve" smooth="yes"></point>
      <point x="167" y="1178"></point>
      <point x="258" y="1176"></point>
      <point x="350" y="1176" type="curve"></point>
      <point x="354" y="1180" type="line"></point>
      <point x="334" y="1217"></point>
      <point x="205" y="1483"></point>
      <point x="205" y="1503" type="curve" smooth="yes"></point>
      <point x="205" y="1519"></point>
      <point x="223" y="1526"></point>
      <point x="237" y="1526" type="curve" smooth="yes"></point>
      <point x="270" y="1526"></point>
      <point x="348" y="1243"></point>
      <point x="395" y="1212" type="curve"></point>
      <point x="422" y="1261"></point>
      <point x="495" y="1544"></point>
      <point x="542" y="1544" type="curve" smooth="yes"></point>
      <point x="556" y="1544"></point>
      <point x="575" y="1527"></point>
      <point x="575" y="1513" type="curve" smooth="yes"></point>
      <point x="575" y="1495"></point>
      <point x="559" y="1474"></point>
      <point x="549" y="1458" type="curve"></point>
      <point x="504" y="1370"></point>
      <point x="485" y="1270"></point>
      <point x="444" y="1178" type="curve"></point>
      <point x="446" y="1176" type="line"></point>
      <point x="487" y="1170"></point>
      <point x="528" y="1167"></point>
      <point x="569" y="1167" type="curve" smooth="yes"></point>
      <point x="626" y="1167"></point>
      <point x="688" y="1178"></point>
      <point x="745" y="1178" type="curve" smooth="yes"></point>
      <point x="765" y="1178"></point>
      <point x="784" y="1157"></point>
      <point x="784" y="1139" type="curve" smooth="yes"></point>
      <point x="784" y="1112"></point>
      <point x="760" y="1110"></point>
      <point x="737" y="1110" type="curve" smooth="yes"></point>
      <point x="657" y="1110"></point>
      <point x="584" y="1120"></point>
    </contour>
    <contour>
      <point x="438" y="1120" type="line"></point>
      <point x="436" y="1120"></point>
      <point x="436" y="1120"></point>
      <point x="436" y="1118" type="curve"></point>
      <point x="438" y="1118" type="line"></point>
    </contour>
  </outline>
</glyph>
<glyph name="plus" format="1">
  <advance width="820"></advance>
  <unicode hex="002B"></unicode>
  <outline>
    <contour>
      <point x="362" y="385" type="curve" smooth="yes"></point>
      <point x="362" y="449" type="line" smooth="yes"></point>
      <point x="362" y="484"></point>
      <point x="366" y="518"></point>
      <point x="366" y="555" type="curve" smooth="yes"></point>
      <point x="366" y="606"></point>
      <point x="367" y="623"></point>
      <point x="297" y="623" type="curve" smooth="yes"></point>
      <point x="266" y="623"></point>
      <point x="238" y="612"></point>
      <point x="207" y="612" type="curve" smooth="yes"></point>
      <point x="176" y="612"></point>
      <point x="147" y="620"></point>
      <point x="147" y="655" type="curve" smooth="yes"></point>
      <point x="147" y="673"></point>
      <point x="150" y="684"></point>
      <point x="170" y="684" type="curve" smooth="yes"></point>
      <point x="207" y="684"></point>
      <point x="241" y="678"></point>
      <point x="278" y="678" type="curve" smooth="yes"></point>
      <point x="290" y="678"></point>
      <point x="362" y="678"></point>
      <point x="362" y="694" type="curve" smooth="yes"></point>
      <point x="362" y="762"></point>
      <point x="352" y="831"></point>
      <point x="352" y="899" type="curve" smooth="yes"></point>
      <point x="352" y="930"></point>
      <point x="360" y="944"></point>
      <point x="393" y="944" type="curve" smooth="yes"></point>
      <point x="416" y="944"></point>
      <point x="430" y="932"></point>
      <point x="430" y="909" type="curve"></point>
      <point x="422" y="889" type="line"></point>
      <point x="422" y="836"></point>
      <point x="430" y="780"></point>
      <point x="430" y="727" type="curve" smooth="yes"></point>
      <point x="430" y="686"></point>
      <point x="450" y="678"></point>
      <point x="487" y="678" type="curve" smooth="yes"></point>
      <point x="528" y="678"></point>
      <point x="569" y="684"></point>
      <point x="610" y="684" type="curve" smooth="yes"></point>
      <point x="635" y="684"></point>
      <point x="674" y="680"></point>
      <point x="674" y="647" type="curve" smooth="yes"></point>
      <point x="674" y="624"></point>
      <point x="659" y="614"></point>
      <point x="639" y="614" type="curve" smooth="yes"></point>
      <point x="598" y="614"></point>
      <point x="557" y="621"></point>
      <point x="514" y="621" type="curve" smooth="yes"></point>
      <point x="504" y="621" type="line" smooth="yes"></point>
      <point x="450" y="621"></point>
      <point x="430" y="619"></point>
      <point x="430" y="553" type="curve" smooth="yes"></point>
      <point x="430" y="483"></point>
      <point x="448" y="446"></point>
      <point x="448" y="389" type="curve" smooth="yes"></point>
      <point x="448" y="366"></point>
      <point x="425" y="356"></point>
      <point x="405" y="356" type="curve" smooth="yes"></point>
      <point x="391" y="356"></point>
      <point x="362" y="369"></point>
    </contour>
  </outline>
</glyph>
<glyph name="period" format="1">
  <advance width="520"></advance>
  <unicode hex="002E"></unicode>
  <outline>
    <contour>
      <point x="203" y="41" type="curve" smooth="yes"></point>
      <point x="203" y="68"></point>
      <point x="229" y="96"></point>
      <point x="256" y="96" type="curve" smooth="yes"></point>
      <point x="281" y="96"></point>
      <point x="305" y="66"></point>
      <point x="305" y="43" type="curve" smooth="yes"></point>
      <point x="305" y="6"></point>
      <point x="281" y="-8"></point>
      <point x="248" y="-8" type="curve" smooth="yes"></point>
      <point x="223" y="-8"></point>
      <point x="203" y="18"></point>
    </contour>
  </outline>
</glyph>
<glyph name="slash" format="1">
  <advance width="559"/>
  <unicode hex="002F"/>
  <outline>
    <contour>
      <point x="479" y="1505" type="curve" smooth="yes"/>
      <point x="479" y="1489"/>
      <point x="442" y="1337"/>
      <point x="438" y="1317" type="curve" smooth="yes"/>
      <point x="364" y="977"/>
      <point x="285" y="641"/>
      <point x="207" y="299" type="curve" smooth="yes"/>
      <point x="166" y="121" type="line" smooth="yes"/>
      <point x="156" y="78"/>
      <point x="149" y="-2"/>
      <point x="106" y="-6" type="curve"/>
      <point x="94" y="2"/>
      <point x="86" y="17"/>
      <point x="86" y="31" type="curve" smooth="yes"/>
      <point x="86" y="129"/>
      <point x="131" y="268"/>
      <point x="158" y="387" type="curve" smooth="yes"/>
      <point x="238" y="741"/>
      <point x="322" y="1096"/>
      <point x="414" y="1448" type="curve" smooth="yes"/>
      <point x="418" y="1460"/>
      <point x="433" y="1532"/>
      <point x="449" y="1532" type="curve" smooth="yes"/>
      <point x="465" y="1532"/>
      <point x="479" y="1523"/>
    </contour>
  </outline>
</glyph>
<glyph name="zero" format="1">
  <advance width="800"></advance>
  <unicode hex="0030"></unicode>
  <outline>
    <contour>
      <point x="409" y="-14" type="curve" smooth="yes"></point>
      <point x="399" y="-14"></point>
      <point x="353" y="4"></point>
      <point x="343" y="12" type="curve" smooth="yes"></point>
      <point x="203" y="118"></point>
      <point x="187" y="567"></point>
      <point x="187" y="1036" type="curve" smooth="yes"></point>
      <point x="187" y="1145"></point>
      <point x="189" y="1255"></point>
      <point x="189" y="1364" type="curve" smooth="yes"></point>
      <point x="189" y="1453"></point>
      <point x="190" y="1542"></point>
      <point x="335" y="1542" type="curve" smooth="yes"></point>
      <point x="492" y="1542.0"></point>
      <point x="541" y="1358"></point>
      <point x="559" y="1215" type="curve" smooth="yes"></point>
      <point x="590" y="986"></point>
      <point x="605" y="723"></point>
      <point x="605" y="492" type="curve" smooth="yes"></point>
      <point x="605" y="259"></point>
      <point x="595" y="-14"></point>
    </contour>
    <contour>
      <point x="243" y="766" type="curve" smooth="yes"></point>
      <point x="243" y="746" type="line" smooth="yes"></point>
      <point x="243" y="588"></point>
      <point x="267" y="33"></point>
      <point x="427" y="33" type="curve" smooth="yes"></point>
      <point x="548" y="33"></point>
      <point x="552" y="386"></point>
      <point x="552" y="474" type="curve" smooth="yes"></point>
      <point x="552" y="605"></point>
      <point x="528" y="915"></point>
      <point x="528" y="1041" type="curve" smooth="yes"></point>
      <point x="528" y="1080"></point>
      <point x="523" y="1520"></point>
      <point x="304" y="1497" type="curve" smooth="yes"></point>
      <point x="217" y="1488"></point>
      <point x="234" y="1413"></point>
      <point x="234" y="1329" type="curve" smooth="yes"></point>
      <point x="234" y="1202"></point>
      <point x="243" y="1073"></point>
      <point x="243" y="946" type="curve" smooth="yes"></point>
      <point x="243" y="885"></point>
      <point x="243" y="827"></point>
    </contour>
  </outline>
</glyph>
<glyph name="one" format="1">
  <advance width="740"></advance>
  <unicode hex="0031"></unicode>
  <outline>
    <contour>
      <point x="291" y="6"></point>
      <point x="453" y="14"></point>
      <point x="537" y="14" type="curve" smooth="yes"></point>
      <point x="555" y="14"></point>
      <point x="582" y="18"></point>
      <point x="582" y="43" type="curve" smooth="yes"></point>
      <point x="582" y="72"></point>
      <point x="537" y="72"></point>
      <point x="519" y="72" type="curve" smooth="yes"></point>
      <point x="488" y="72"></point>
      <point x="458" y="66"></point>
      <point x="427" y="66" type="curve"></point>
      <point x="418" y="72" type="line"></point>
      <point x="418" y="82"></point>
      <point x="421" y="92"></point>
      <point x="421" y="102" type="curve" smooth="yes"></point>
      <point x="421" y="143"></point>
      <point x="412" y="302"></point>
      <point x="412" y="334" type="curve" smooth="yes"></point>
      <point x="412" y="360" type="line"></point>
      <point x="412" y="589"></point>
      <point x="385" y="961"></point>
      <point x="385" y="1047" type="curve" smooth="yes"></point>
      <point x="385" y="1176"></point>
      <point x="375" y="1305"></point>
      <point x="375" y="1434" type="curve" smooth="yes"></point>
      <point x="375" y="1497" type="line"></point>
      <point x="375" y="1515"></point>
      <point x="360" y="1530"></point>
      <point x="342" y="1530" type="curve" smooth="yes"></point>
      <point x="206" y="1530"></point>
      <point x="139" y="1530"></point>
      <point x="139" y="1501" type="curve" smooth="yes"></point>
      <point x="139" y="1481"></point>
      <point x="160" y="1479"></point>
      <point x="174" y="1479" type="curve" smooth="yes"></point>
      <point x="190" y="1479"></point>
      <point x="205" y="1483"></point>
      <point x="221" y="1483" type="curve" smooth="yes"></point>
      <point x="303" y="1483"></point>
      <point x="315" y="1481"></point>
      <point x="315" y="1415" type="curve" smooth="yes"></point>
      <point x="315" y="1390"></point>
      <point x="313" y="1307"></point>
      <point x="313" y="1284" type="curve"></point>
      <point x="338" y="893"></point>
      <point x="359" y="495"></point>
      <point x="359" y="104" type="curve" smooth="yes"></point>
      <point x="359" y="65"></point>
      <point x="347" y="64"></point>
      <point x="308" y="64" type="curve" smooth="yes"></point>
      <point x="290" y="64"></point>
      <point x="206" y="65"></point>
      <point x="191" y="65" type="curve" smooth="yes"></point>
      <point x="182" y="65"></point>
      <point x="175" y="53"></point>
      <point x="175" y="46" type="curve"></point>
      <point x="175" y="9"></point>
      <point x="189" y="6"></point>
      <point x="207" y="6" type="curve" smooth="yes"></point>
    </contour>
  </outline>
</glyph>
<glyph name="four" format="1">
  <advance width="660"></advance>
  <unicode hex="0034"></unicode>
  <outline>
    <contour>
      <point x="380" y="61" type="line"></point>
      <point x="378" y="66" type="line"></point>
      <point x="384" y="91"></point>
      <point x="386" y="114"></point>
      <point x="386" y="139" type="curve" smooth="yes"></point>
      <point x="386" y="209"></point>
      <point x="372" y="278"></point>
      <point x="372" y="348" type="curve" smooth="yes"></point>
      <point x="372" y="379"></point>
      <point x="376" y="409"></point>
      <point x="376" y="440" type="curve" smooth="yes"></point>
      <point x="376" y="460"></point>
      <point x="375" y="520"></point>
      <point x="355" y="530" type="curve"></point>
      <point x="314" y="530"></point>
      <point x="276" y="518"></point>
      <point x="235" y="518" type="curve" smooth="yes"></point>
      <point x="202" y="518"></point>
      <point x="204" y="523"></point>
      <point x="179" y="541" type="curve"></point>
      <point x="179" y="547" type="line" smooth="yes"></point>
      <point x="179" y="570"></point>
      <point x="186" y="592"></point>
      <point x="190" y="612" type="curve"></point>
      <point x="171" y="653" type="line"></point>
      <point x="171" y="688"></point>
      <point x="190" y="719"></point>
      <point x="190" y="754" type="curve" smooth="yes"></point>
      <point x="190" y="887"></point>
      <point x="210" y="1022"></point>
      <point x="210" y="1155" type="curve" smooth="yes"></point>
      <point x="210" y="1481" type="line" smooth="yes"></point>
      <point x="210" y="1497"></point>
      <point x="202" y="1516"></point>
      <point x="202" y="1532" type="curve" smooth="yes"></point>
      <point x="202" y="1548"></point>
      <point x="210" y="1559"></point>
      <point x="226" y="1559" type="curve" smooth="yes"></point>
      <point x="242" y="1559"></point>
      <point x="263" y="1550"></point>
      <point x="263" y="1530" type="curve" smooth="yes"></point>
      <point x="263" y="1475"></point>
      <point x="255" y="1421"></point>
      <point x="255" y="1366" type="curve" smooth="yes"></point>
      <point x="255" y="1343"></point>
      <point x="257" y="1319"></point>
      <point x="261" y="1296" type="curve"></point>
      <point x="257" y="1290" type="line"></point>
      <point x="259" y="1272"></point>
      <point x="261" y="1253"></point>
      <point x="261" y="1233" type="curve" smooth="yes"></point>
      <point x="261" y="1061"></point>
      <point x="237" y="889"></point>
      <point x="237" y="717" type="curve" smooth="yes"></point>
      <point x="237" y="697"></point>
      <point x="251" y="677"></point>
      <point x="251" y="657" type="curve" smooth="yes"></point>
      <point x="251" y="637"></point>
      <point x="237" y="622"></point>
      <point x="237" y="602" type="curve" smooth="yes"></point>
      <point x="237" y="588"></point>
      <point x="237" y="563"></point>
      <point x="257" y="563" type="curve" smooth="yes"></point>
      <point x="280" y="563"></point>
      <point x="342" y="572"></point>
      <point x="360" y="582" type="curve"></point>
      <point x="360" y="729"></point>
      <point x="351" y="877"></point>
      <point x="345" y="1024" type="curve" smooth="yes"></point>
      <point x="343" y="1079"></point>
      <point x="329" y="1133"></point>
      <point x="329" y="1188" type="curve" smooth="yes"></point>
      <point x="329" y="1206"></point>
      <point x="354" y="1212"></point>
      <point x="368" y="1212" type="curve"></point>
      <point x="386" y="1190" type="line"></point>
      <point x="386" y="1094"></point>
      <point x="398" y="997"></point>
      <point x="398" y="901" type="curve" smooth="yes"></point>
      <point x="398" y="860"></point>
      <point x="405" y="596"></point>
      <point x="419" y="582" type="curve"></point>
      <point x="444" y="582"></point>
      <point x="468" y="590"></point>
      <point x="495" y="590" type="curve" smooth="yes"></point>
      <point x="509" y="590"></point>
      <point x="534" y="587"></point>
      <point x="534" y="567" type="curve" smooth="yes"></point>
      <point x="534" y="514"></point>
      <point x="419" y="576"></point>
      <point x="419" y="498" type="curve" smooth="yes"></point>
      <point x="419" y="451"></point>
      <point x="427" y="177"></point>
      <point x="437" y="152" type="curve"></point>
      <point x="435" y="144"></point>
      <point x="435" y="131"></point>
      <point x="435" y="117" type="curve" smooth="yes"></point>
      <point x="435" y="99"></point>
      <point x="438" y="78"></point>
      <point x="444" y="68" type="curve"></point>
      <point x="437" y="43" type="line"></point>
      <point x="444" y="29" type="line"></point>
      <point x="444" y="0" type="line"></point>
      <point x="411" y="-25" type="line"></point>
      <point x="380" y="-12" type="line"></point>
    </contour>
  </outline>
</glyph>
<glyph name="seven" format="1">
  <advance width="600"></advance>
  <unicode hex="0037"></unicode>
  <outline>
    <contour>
      <point x="165" y="-4" type="line"></point>
      <point x="165" y="47"></point>
      <point x="190" y="94"></point>
      <point x="202" y="143" type="curve" smooth="yes"></point>
      <point x="284" y="493"></point>
      <point x="306" y="856"></point>
      <point x="351" y="1212" type="curve" smooth="yes"></point>
      <point x="363" y="1312"></point>
      <point x="386" y="1414"></point>
      <point x="386" y="1516" type="curve" smooth="yes"></point>
      <point x="386" y="1528"></point>
      <point x="325" y="1528"></point>
      <point x="315" y="1528" type="curve" smooth="yes"></point>
      <point x="274" y="1528"></point>
      <point x="235" y="1522"></point>
      <point x="194" y="1522" type="curve"></point>
      <point x="163" y="1542" type="line"></point>
      <point x="181" y="1561" type="line"></point>
      <point x="253" y="1561"></point>
      <point x="326" y="1567"></point>
      <point x="398" y="1567" type="curve" smooth="yes"></point>
      <point x="418" y="1567"></point>
      <point x="438" y="1548"></point>
      <point x="444" y="1530" type="curve"></point>
      <point x="428" y="1487"></point>
      <point x="433" y="1440"></point>
      <point x="429" y="1395" type="curve" smooth="yes"></point>
      <point x="417" y="1252"></point>
      <point x="268" y="131"></point>
      <point x="237" y="86" type="curve"></point>
      <point x="239" y="80"></point>
      <point x="239" y="74"></point>
      <point x="239" y="70" type="curve" smooth="yes"></point>
      <point x="239" y="41"></point>
      <point x="225" y="-25"></point>
      <point x="190" y="-27" type="curve"></point>
    </contour>
  </outline>
</glyph>
<glyph name="eight" format="1">
  <advance width="680"></advance>
  <unicode hex="0038"></unicode>
  <outline>
    <contour>
      <point x="192" y="186" type="curve" smooth="yes"></point>
      <point x="192" y="374"></point>
      <point x="211" y="572"></point>
      <point x="258" y="756" type="curve" smooth="yes"></point>
      <point x="268" y="793"></point>
      <point x="288" y="829"></point>
      <point x="288" y="868" type="curve" smooth="yes"></point>
      <point x="288" y="891"></point>
      <point x="249" y="1003"></point>
      <point x="241" y="1030" type="curve" smooth="yes"></point>
      <point x="204" y="1143"></point>
      <point x="147" y="1325"></point>
      <point x="147" y="1442" type="curve" smooth="yes"></point>
      <point x="147" y="1518"></point>
      <point x="174" y="1610"></point>
      <point x="266" y="1610" type="curve" smooth="yes"></point>
      <point x="303" y="1610" type="line"></point>
      <point x="330" y="1596"></point>
      <point x="360" y="1590"></point>
      <point x="374" y="1559" type="curve" smooth="yes"></point>
      <point x="401" y="1498"></point>
      <point x="413" y="1399"></point>
      <point x="413" y="1331" type="curve" smooth="yes"></point>
      <point x="413" y="1222"></point>
      <point x="392" y="1114"></point>
      <point x="372" y="1008" type="curve" smooth="yes"></point>
      <point x="366" y="981"></point>
      <point x="342" y="888"></point>
      <point x="342" y="868" type="curve" smooth="yes"></point>
      <point x="342" y="852"></point>
      <point x="362" y="813"></point>
      <point x="368" y="795" type="curve" smooth="yes"></point>
      <point x="434" y="596"></point>
      <point x="503" y="333"></point>
      <point x="503" y="104" type="curve" smooth="yes"></point>
      <point x="503" y="88"></point>
      <point x="497" y="71"></point>
      <point x="497" y="55" type="curve" smooth="yes"></point>
      <point x="497" y="51"></point>
      <point x="497" y="49"></point>
      <point x="499" y="45" type="curve"></point>
      <point x="460" y="-31"></point>
      <point x="423" y="-78"></point>
      <point x="331" y="-78" type="curve" smooth="yes"></point>
      <point x="222" y="-78"></point>
      <point x="192" y="104"></point>
    </contour>
    <contour>
      <point x="264" y="53" type="line"></point>
      <point x="266" y="18"></point>
      <point x="288" y="-39"></point>
      <point x="331" y="-39" type="curve" smooth="yes"></point>
      <point x="425" y="-39"></point>
      <point x="454" y="39"></point>
      <point x="454" y="119" type="curve" smooth="yes"></point>
      <point x="454" y="273"></point>
      <point x="417" y="448"></point>
      <point x="376" y="598" type="curve" smooth="yes"></point>
      <point x="358" y="661"></point>
      <point x="348" y="741"></point>
      <point x="321" y="788" type="curve"></point>
      <point x="258" y="700"></point>
      <point x="239" y="291"></point>
      <point x="239" y="168" type="curve" smooth="yes"></point>
      <point x="239" y="131"></point>
      <point x="252" y="94"></point>
      <point x="266" y="59" type="curve"></point>
    </contour>
    <contour>
      <point x="198" y="1438" type="curve" smooth="yes"></point>
      <point x="198" y="1372"></point>
      <point x="262" y="996"></point>
      <point x="305" y="969" type="curve"></point>
      <point x="342" y="1088"></point>
      <point x="366" y="1210"></point>
      <point x="366" y="1335" type="curve" smooth="yes"></point>
      <point x="366" y="1382"></point>
      <point x="358" y="1565"></point>
      <point x="292" y="1565" type="curve" smooth="yes"></point>
      <point x="286" y="1565"></point>
      <point x="278" y="1563"></point>
      <point x="270" y="1563" type="curve" smooth="yes"></point>
      <point x="262" y="1563"></point>
      <point x="251" y="1565"></point>
      <point x="245" y="1569" type="curve"></point>
      <point x="204" y="1536"></point>
      <point x="198" y="1487"></point>
    </contour>
  </outline>
</glyph>
<glyph name="nine" format="1">
  <advance width="740"></advance>
  <unicode hex="0039"></unicode>
  <outline>
    <contour>
      <point x="454" y="-27" type="line"></point>
      <point x="472" y="24"></point>
      <point x="473" y="101"></point>
      <point x="473" y="156" type="curve" smooth="yes"></point>
      <point x="473" y="346"></point>
      <point x="483" y="537"></point>
      <point x="483" y="727" type="curve" smooth="yes"></point>
      <point x="483" y="801"></point>
      <point x="479" y="874"></point>
      <point x="479" y="948" type="curve"></point>
      <point x="465" y="944" type="line"></point>
      <point x="265" y="970"></point>
      <point x="171" y="1151"></point>
      <point x="171" y="1316" type="curve" smooth="yes"></point>
      <point x="171" y="1465"></point>
      <point x="248" y="1602"></point>
      <point x="393" y="1602" type="curve" smooth="yes"></point>
      <point x="430" y="1602"></point>
      <point x="506" y="1581"></point>
      <point x="526" y="1550" type="curve" smooth="yes"></point>
      <point x="540" y="1527"></point>
      <point x="541" y="1262"></point>
      <point x="541" y="1223" type="curve" smooth="yes"></point>
      <point x="541" y="1143"></point>
      <point x="538" y="1061"></point>
      <point x="538" y="981" type="curve" smooth="yes"></point>
      <point x="538" y="952"></point>
      <point x="524" y="928"></point>
      <point x="524" y="899" type="curve" smooth="yes"></point>
      <point x="524" y="670"></point>
      <point x="518" y="438"></point>
      <point x="518" y="209" type="curve" smooth="yes"></point>
      <point x="518" y="158"></point>
      <point x="504" y="108"></point>
      <point x="504" y="57" type="curve" smooth="yes"></point>
      <point x="504" y="41"></point>
      <point x="506" y="26"></point>
      <point x="506" y="10" type="curve" smooth="yes"></point>
      <point x="506" y="-13"></point>
      <point x="502" y="-47"></point>
      <point x="471" y="-47" type="curve"></point>
    </contour>
    <contour>
      <point x="452" y="997" type="curve"></point>
      <point x="481" y="1001" type="line"></point>
      <point x="489" y="1146"></point>
      <point x="491" y="1295"></point>
      <point x="491" y="1440" type="curve" smooth="yes"></point>
      <point x="491" y="1508"></point>
      <point x="473" y="1563"></point>
      <point x="395" y="1563" type="curve" smooth="yes"></point>
      <point x="273" y="1563"></point>
      <point x="225" y="1474"></point>
      <point x="225" y="1366" type="curve" smooth="yes"></point>
      <point x="225" y="1208"></point>
      <point x="328" y="1011"></point>
    </contour>
  </outline>
</glyph>
<glyph name="colon" format="1">
  <advance width="520"></advance>
  <unicode hex="003A"></unicode>
  <outline>
    <contour>
      <point x="195" y="250" type="curve" smooth="yes"></point>
      <point x="195" y="277"></point>
      <point x="221" y="305"></point>
      <point x="248" y="305" type="curve" smooth="yes"></point>
      <point x="273" y="305"></point>
      <point x="297" y="275"></point>
      <point x="297" y="252" type="curve" smooth="yes"></point>
      <point x="297" y="215"></point>
      <point x="273" y="201"></point>
      <point x="240" y="201" type="curve" smooth="yes"></point>
      <point x="215" y="201"></point>
      <point x="195" y="227"></point>
    </contour>
    <contour>
      <point x="215" y="1024" type="curve" smooth="yes"></point>
      <point x="215" y="1051"></point>
      <point x="241" y="1079"></point>
      <point x="268" y="1079" type="curve" smooth="yes"></point>
      <point x="293" y="1079"></point>
      <point x="318" y="1049"></point>
      <point x="318" y="1026" type="curve" smooth="yes"></point>
      <point x="318" y="989"></point>
      <point x="293" y="975"></point>
      <point x="260" y="975" type="curve" smooth="yes"></point>
      <point x="235" y="975"></point>
      <point x="215" y="1001"></point>
    </contour>
  </outline>
</glyph>
<glyph name="semicolon" format="1">
  <advance width="560"></advance>
  <unicode hex="003B"></unicode>
  <outline>
    <contour>
      <point x="265" y="1024" type="curve" smooth="yes"></point>
      <point x="265" y="1051"></point>
      <point x="291" y="1079"></point>
      <point x="318" y="1079" type="curve" smooth="yes"></point>
      <point x="343" y="1079"></point>
      <point x="368" y="1049"></point>
      <point x="368" y="1026" type="curve" smooth="yes"></point>
      <point x="368" y="989"></point>
      <point x="343" y="975"></point>
      <point x="310" y="975" type="curve" smooth="yes"></point>
      <point x="285" y="975"></point>
      <point x="265" y="1001"></point>
    </contour>
    <contour>
      <point x="179" y="14" type="line"></point>
      <point x="183" y="33" type="line"></point>
      <point x="224" y="72"></point>
      <point x="290" y="119"></point>
      <point x="290" y="182" type="curve"></point>
      <point x="259" y="200"></point>
      <point x="230" y="235"></point>
      <point x="230" y="272" type="curve" smooth="yes"></point>
      <point x="230" y="311"></point>
      <point x="273" y="336"></point>
      <point x="308" y="336" type="curve" smooth="yes"></point>
      <point x="349" y="336"></point>
      <point x="376" y="297"></point>
      <point x="376" y="258" type="curve" smooth="yes"></point>
      <point x="376" y="186"></point>
      <point x="294" y="0"></point>
      <point x="212" y="-2" type="curve"></point>
    </contour>
  </outline>
</glyph>
<glyph name="equal" format="1">
  <advance width="760"></advance>
  <unicode hex="003D"></unicode>
  <outline>
    <contour>
      <point x="595" y="727" type="curve" smooth="yes"></point>
      <point x="595" y="721"></point>
      <point x="493" y="721"></point>
      <point x="380" y="721" type="curve" smooth="yes"></point>
      <point x="182" y="721" type="line" smooth="yes"></point>
      <point x="162" y="721"></point>
      <point x="139" y="733"></point>
      <point x="139" y="756" type="curve" smooth="yes"></point>
      <point x="139" y="762"></point>
      <point x="227" y="762"></point>
      <point x="319" y="762" type="curve" smooth="yes"></point>
      <point x="550" y="762" type="line" smooth="yes"></point>
      <point x="568" y="762"></point>
      <point x="595" y="747"></point>
    </contour>
    <contour>
      <point x="579" y="604" type="curve"></point>
      <point x="579" y="606"></point>
      <point x="295" y="608"></point>
      <point x="184" y="608" type="curve" smooth="yes"></point>
      <point x="172" y="608"></point>
      <point x="159" y="627"></point>
      <point x="159" y="639" type="curve" smooth="yes"></point>
      <point x="159" y="643"></point>
      <point x="161" y="647"></point>
      <point x="167" y="647" type="curve" smooth="yes"></point>
      <point x="177" y="647"></point>
      <point x="475" y="645"></point>
      <point x="571" y="645" type="curve" smooth="yes"></point>
      <point x="581" y="645"></point>
      <point x="591" y="628"></point>
      <point x="591" y="616" type="curve" smooth="yes"></point>
      <point x="591" y="610"></point>
      <point x="587" y="604"></point>
    </contour>
  </outline>
</glyph>
<glyph name="question" format="1">
  <advance width="640"></advance>
  <unicode hex="003F"></unicode>
  <outline>
    <contour>
      <point x="202" y="1283" type="curve" smooth="yes"></point>
      <point x="193" y="1329"></point>
      <point x="187" y="1373"></point>
      <point x="187" y="1410" type="curve" smooth="yes"></point>
      <point x="187" y="1486"></point>
      <point x="214" y="1578"></point>
      <point x="306" y="1578" type="curve" smooth="yes"></point>
      <point x="358" y="1578"></point>
      <point x="400" y="1565"></point>
      <point x="417" y="1533" type="curve"></point>
      <point x="446" y="1472"></point>
      <point x="460" y="1373"></point>
      <point x="460" y="1305" type="curve" smooth="yes"></point>
      <point x="460" y="982"></point>
      <point x="329" y="854"></point>
      <point x="329" y="357" type="curve" smooth="yes"></point>
      <point x="329" y="321"></point>
      <point x="330" y="282"></point>
      <point x="331" y="242" type="curve"></point>
      <point x="331" y="246"></point>
      <point x="318" y="236"></point>
      <point x="306" y="236" type="curve" smooth="yes"></point>
      <point x="297" y="236"></point>
      <point x="287" y="241"></point>
      <point x="283" y="260" type="curve"></point>
      <point x="283" y="445"></point>
      <point x="294" y="638"></point>
      <point x="322" y="819" type="curve"></point>
      <point x="350" y="977"></point>
      <point x="406" y="1136"></point>
      <point x="406" y="1303" type="curve" smooth="yes"></point>
      <point x="406" y="1350"></point>
      <point x="399" y="1533"></point>
      <point x="333" y="1533" type="curve" smooth="yes"></point>
      <point x="310" y="1533" type="line" smooth="yes"></point>
      <point x="247" y="1533"></point>
      <point x="238" y="1464"></point>
      <point x="238" y="1406" type="curve" smooth="yes"></point>
      <point x="238" y="1387"></point>
      <point x="244" y="1340"></point>
      <point x="253" y="1283" type="curve"></point>
      <point x="253" y="1283"></point>
      <point x="206" y="1264"></point>
    </contour>
    <contour>
      <point x="261" y="41" type="curve" smooth="yes"></point>
      <point x="261" y="68"></point>
      <point x="287" y="96"></point>
      <point x="314" y="96" type="curve" smooth="yes"></point>
      <point x="339" y="96"></point>
      <point x="363" y="66"></point>
      <point x="363" y="43" type="curve" smooth="yes"></point>
      <point x="363" y="6"></point>
      <point x="339" y="-8"></point>
      <point x="306" y="-8" type="curve" smooth="yes"></point>
      <point x="281" y="-8"></point>
      <point x="261" y="18"></point>
    </contour>
  </outline>
</glyph>
<glyph name="at" format="1">
  <advance width="1140"></advance>
  <unicode hex="0040"></unicode>
  <outline>
    <contour>
      <point x="226" y="279" type="curve"></point>
      <point x="224" y="310"></point>
      <point x="209" y="331"></point>
      <point x="199" y="360" type="curve" smooth="yes"></point>
      <point x="166" y="452"></point>
      <point x="131" y="909"></point>
      <point x="131" y="1024" type="curve" smooth="yes"></point>
      <point x="131" y="1176"></point>
      <point x="135" y="1329"></point>
      <point x="166" y="1479" type="curve" smooth="yes"></point>
      <point x="213" y="1712"></point>
      <point x="269" y="1833"></point>
      <point x="519" y="1833" type="curve" smooth="yes"></point>
      <point x="865" y="1833"></point>
      <point x="909" y="1453"></point>
      <point x="952" y="1174" type="curve" smooth="yes"></point>
      <point x="966" y="1084"></point>
      <point x="983" y="993"></point>
      <point x="983" y="903" type="curve" smooth="yes"></point>
      <point x="983" y="799"></point>
      <point x="978" y="565"></point>
      <point x="831" y="565" type="curve" smooth="yes"></point>
      <point x="780" y="565"></point>
      <point x="766" y="606"></point>
      <point x="728" y="616" type="curve"></point>
      <point x="694" y="534"></point>
      <point x="611" y="467"></point>
      <point x="526" y="467" type="curve" smooth="yes"></point>
      <point x="336" y="467"></point>
      <point x="323" y="778"></point>
      <point x="323" y="954" type="curve" smooth="yes"></point>
      <point x="323" y="1006" type="line" smooth="yes"></point>
      <point x="323" y="1196"></point>
      <point x="332" y="1464"></point>
      <point x="530" y="1464" type="curve" smooth="yes"></point>
      <point x="579" y="1464"></point>
      <point x="630" y="1444"></point>
      <point x="664" y="1405" type="curve" smooth="yes"></point>
      <point x="702" y="1362"></point>
      <point x="756" y="788"></point>
      <point x="768" y="686" type="curve"></point>
      <point x="791" y="676" type="line"></point>
      <point x="797" y="664"></point>
      <point x="818" y="625"></point>
      <point x="834" y="625" type="curve" smooth="yes"></point>
      <point x="914" y="625"></point>
      <point x="913" y="860"></point>
      <point x="913" y="915" type="curve" smooth="yes"></point>
      <point x="913" y="1128"></point>
      <point x="875" y="1349"></point>
      <point x="799" y="1550" type="curve" smooth="yes"></point>
      <point x="740" y="1704"></point>
      <point x="666" y="1774"></point>
      <point x="509" y="1774" type="curve" smooth="yes"></point>
      <point x="266" y="1774"></point>
      <point x="240" y="1585"></point>
      <point x="228" y="1380" type="curve" smooth="yes"></point>
      <point x="224" y="1319"></point>
      <point x="222" y="1243"></point>
      <point x="199" y="1186" type="curve"></point>
      <point x="201" y="1159"></point>
      <point x="203" y="1133"></point>
      <point x="203" y="1106" type="curve" smooth="yes"></point>
      <point x="203" y="1086"></point>
      <point x="203" y="1060"></point>
      <point x="195" y="1040" type="curve"></point>
      <point x="199" y="1032"></point>
      <point x="199" y="1022"></point>
      <point x="199" y="1014" type="curve" smooth="yes"></point>
      <point x="199" y="897"></point>
      <point x="214" y="785"></point>
      <point x="226" y="668" type="curve"></point>
      <point x="249" y="471"></point>
      <point x="223" y="354"></point>
      <point x="346" y="180" type="curve" smooth="yes"></point>
      <point x="379" y="133"></point>
      <point x="422" y="86"></point>
      <point x="478" y="86" type="curve" smooth="yes"></point>
      <point x="627" y="86"></point>
      <point x="731" y="131"></point>
      <point x="842" y="248" type="curve" smooth="yes"></point>
      <point x="852" y="258"></point>
      <point x="873" y="283"></point>
      <point x="887" y="287" type="curve"></point>
      <point x="905" y="268" type="line"></point>
      <point x="864" y="125"></point>
      <point x="608" y="39"></point>
      <point x="485" y="39" type="curve" smooth="yes"></point>
      <point x="357" y="39"></point>
      <point x="277" y="168"></point>
    </contour>
    <contour>
      <point x="530" y="1409" type="curve" smooth="yes"></point>
      <point x="411" y="1409"></point>
      <point x="405" y="1211"></point>
      <point x="405" y="1094" type="curve" smooth="yes"></point>
      <point x="405" y="831" type="line" smooth="yes"></point>
      <point x="405" y="702"></point>
      <point x="413" y="526"></point>
      <point x="541" y="526" type="curve" smooth="yes"></point>
      <point x="615" y="526"></point>
      <point x="687" y="675"></point>
      <point x="687" y="745" type="curve" smooth="yes"></point>
      <point x="687" y="899" type="line" smooth="yes"></point>
      <point x="687" y="1012"></point>
      <point x="663" y="1124"></point>
      <point x="642" y="1233" type="curve" smooth="yes"></point>
      <point x="625" y="1319"></point>
      <point x="626" y="1409"></point>
    </contour>
  </outline>
</glyph>
<glyph name="A" format="1">
  <advance width="800"></advance>
  <unicode hex="0041"></unicode>
  <outline>
    <contour>
      <point x="552" y="35" type="curve" smooth="yes"></point>
      <point x="552" y="303" type="line" smooth="yes"></point>
      <point x="552" y="344"></point>
      <point x="315" y="369"></point>
      <point x="276" y="369" type="curve" smooth="yes"></point>
      <point x="260" y="369"></point>
      <point x="196" y="54"></point>
      <point x="187" y="20" type="curve" smooth="yes"></point>
      <point x="184" y="9"></point>
      <point x="175" y="5"></point>
      <point x="165" y="5" type="curve" smooth="yes"></point>
      <point x="146" y="5"></point>
      <point x="123" y="20"></point>
      <point x="123" y="39" type="curve" smooth="yes"></point>
      <point x="123" y="41"></point>
      <point x="124" y="43"></point>
      <point x="124" y="45" type="curve" smooth="yes"></point>
      <point x="134" y="84"></point>
      <point x="200" y="383"></point>
      <point x="220" y="471" type="curve" smooth="yes"></point>
      <point x="281" y="737"></point>
      <point x="313" y="1008"></point>
      <point x="372" y="1274" type="curve" smooth="yes"></point>
      <point x="380" y="1313"></point>
      <point x="431" y="1536"></point>
      <point x="468" y="1536" type="curve" smooth="yes"></point>
      <point x="488" y="1536"></point>
      <point x="503" y="1532"></point>
      <point x="515" y="1516" type="curve"></point>
      <point x="535" y="1485"></point>
      <point x="579" y="1010"></point>
      <point x="585" y="940" type="curve" smooth="yes"></point>
      <point x="613" y="600" type="line"></point>
      <point x="613" y="422"></point>
      <point x="636" y="244"></point>
      <point x="636" y="66" type="curve" smooth="yes"></point>
      <point x="636" y="57" type="line" smooth="yes"></point>
      <point x="636" y="24"></point>
      <point x="634" y="0"></point>
      <point x="591" y="0" type="curve" smooth="yes"></point>
      <point x="571" y="0"></point>
      <point x="552" y="15"></point>
    </contour>
    <contour>
      <point x="277" y="426" type="line"></point>
      <point x="336" y="406"></point>
      <point x="421" y="397"></point>
      <point x="484" y="397" type="curve" smooth="yes"></point>
      <point x="491" y="397"></point>
      <point x="501" y="396"></point>
      <point x="510" y="396" type="curve" smooth="yes"></point>
      <point x="530" y="396"></point>
      <point x="550" y="399"></point>
      <point x="550" y="416" type="curve" smooth="yes"></point>
      <point x="550" y="723"></point>
      <point x="494" y="1272"></point>
      <point x="481" y="1389" type="curve" smooth="yes"></point>
      <point x="479" y="1405"></point>
      <point x="473" y="1420"></point>
      <point x="473" y="1436" type="curve"></point>
      <point x="454" y="1382"></point>
      <point x="438" y="1298"></point>
      <point x="429" y="1253" type="curve"></point>
      <point x="416" y="1178"></point>
      <point x="370" y="859"></point>
      <point x="325" y="664" type="curve"></point>
      <point x="309" y="590"></point>
      <point x="277" y="514"></point>
      <point x="277" y="438" type="curve" smooth="yes"></point>
    </contour>
  </outline>
</glyph>
<glyph name="B" format="1">
  <advance width="740"></advance>
  <unicode hex="0042"></unicode>
  <outline>
    <contour>
      <point x="183" y="16" type="curve" smooth="yes"></point>
      <point x="183" y="188"></point>
      <point x="193" y="363"></point>
      <point x="193" y="535" type="curve" smooth="yes"></point>
      <point x="193" y="820"></point>
      <point x="179" y="1104"></point>
      <point x="179" y="1389" type="curve" smooth="yes"></point>
      <point x="179" y="1424"></point>
      <point x="179" y="1536"></point>
      <point x="232" y="1536" type="curve" smooth="yes"></point>
      <point x="427" y="1536"></point>
      <point x="519" y="1394"></point>
      <point x="519" y="1214" type="curve" smooth="yes"></point>
      <point x="519" y="1087"></point>
      <point x="461" y="974"></point>
      <point x="387" y="874" type="curve"></point>
      <point x="532" y="731"></point>
      <point x="584" y="617"></point>
      <point x="584" y="433" type="curve" smooth="yes"></point>
      <point x="584" y="187"></point>
      <point x="554" y="100"></point>
      <point x="344" y="8" type="curve"></point>
      <point x="315" y="6"></point>
      <point x="292" y="-12"></point>
      <point x="263" y="-12" type="curve" smooth="yes"></point>
      <point x="259" y="-12" type="line" smooth="yes"></point>
      <point x="236" y="-12"></point>
      <point x="183" y="-11"></point>
    </contour>
    <contour>
      <point x="260" y="70" type="curve"></point>
      <point x="264" y="70"></point>
      <point x="269" y="68"></point>
      <point x="273" y="68" type="curve" smooth="yes"></point>
      <point x="414" y="68"></point>
      <point x="527" y="211"></point>
      <point x="527" y="371" type="curve" smooth="yes"></point>
      <point x="527" y="518"></point>
      <point x="511" y="745"></point>
      <point x="351" y="811" type="curve"></point>
      <point x="316" y="809"></point>
      <point x="285" y="794"></point>
      <point x="250" y="788" type="curve"></point>
      <point x="258" y="548"></point>
      <point x="260" y="310"></point>
    </contour>
    <contour>
      <point x="250" y="887" type="curve"></point>
      <point x="252" y="887"></point>
      <point x="256" y="885"></point>
      <point x="256" y="885" type="curve"></point>
      <point x="387" y="885"></point>
      <point x="465" y="1133"></point>
      <point x="465" y="1268" type="curve" smooth="yes"></point>
      <point x="465" y="1356"></point>
      <point x="389" y="1466"></point>
      <point x="295" y="1466" type="curve" smooth="yes"></point>
      <point x="248" y="1466"></point>
      <point x="242" y="1413"></point>
      <point x="242" y="1378" type="curve" smooth="yes"></point>
      <point x="242" y="1214"></point>
      <point x="250" y="1051"></point>
    </contour>
  </outline>
</glyph>
<glyph name="C" format="1">
  <advance width="780"></advance>
  <unicode hex="0043"></unicode>
  <outline>
    <contour>
      <point x="173" y="877" type="curve" smooth="yes"></point>
      <point x="173" y="950"></point>
      <point x="171" y="1022"></point>
      <point x="171" y="1090" type="curve" smooth="yes"></point>
      <point x="171" y="1355"></point>
      <point x="200" y="1565"></point>
      <point x="483" y="1565" type="curve" smooth="yes"></point>
      <point x="522" y="1565"></point>
      <point x="601" y="1536"></point>
      <point x="601" y="1489" type="curve" smooth="yes"></point>
      <point x="601" y="1471"></point>
      <point x="583" y="1466"></point>
      <point x="569" y="1466" type="curve" smooth="yes"></point>
      <point x="543" y="1466"></point>
      <point x="503" y="1495"></point>
      <point x="466" y="1495" type="curve" smooth="yes"></point>
      <point x="254" y="1495"></point>
      <point x="225" y="1289"></point>
      <point x="225" y="1081" type="curve" smooth="yes"></point>
      <point x="225" y="1004"></point>
      <point x="229" y="927"></point>
      <point x="229" y="860" type="curve" smooth="yes"></point>
      <point x="229" y="747"></point>
      <point x="268" y="197"></point>
      <point x="313" y="127" type="curve" smooth="yes"></point>
      <point x="350" y="70"></point>
      <point x="424" y="47"></point>
      <point x="487" y="47" type="curve" smooth="yes"></point>
      <point x="540" y="47"></point>
      <point x="595" y="65"></point>
      <point x="630" y="106" type="curve"></point>
      <point x="640" y="121"></point>
      <point x="655" y="132"></point>
      <point x="668" y="132" type="curve" smooth="yes"></point>
      <point x="679" y="132"></point>
      <point x="687" y="124"></point>
      <point x="687" y="102" type="curve" smooth="yes"></point>
      <point x="687" y="-2"></point>
      <point x="542" y="-33"></point>
      <point x="460" y="-33" type="curve" smooth="yes"></point>
      <point x="378" y="-33"></point>
      <point x="282" y="43"></point>
      <point x="249" y="115" type="curve" smooth="yes"></point>
      <point x="210" y="199"></point>
      <point x="173" y="756"></point>
    </contour>
  </outline>
</glyph>
<glyph name="D" format="1">
  <advance width="820"></advance>
  <unicode hex="0044"></unicode>
  <outline>
    <contour>
      <point x="172" y="37" type="curve" smooth="yes"></point>
      <point x="172" y="66"></point>
      <point x="205" y="90"></point>
      <point x="204" y="119" type="curve" smooth="yes"></point>
      <point x="198" y="299" type="line"></point>
      <point x="184" y="858" type="line"></point>
      <point x="179" y="896"></point>
      <point x="181" y="1305"></point>
      <point x="168" y="1391" type="curve" smooth="yes"></point>
      <point x="163" y="1426"></point>
      <point x="139" y="1460"></point>
      <point x="139" y="1497" type="curve" smooth="yes"></point>
      <point x="139" y="1546"></point>
      <point x="256" y="1546"></point>
      <point x="293" y="1546" type="curve" smooth="yes"></point>
      <point x="303" y="1546" type="line" smooth="yes"></point>
      <point x="644" y="1546"></point>
      <point x="654" y="988"></point>
      <point x="654" y="837" type="curve" smooth="yes"></point>
      <point x="654" y="592"></point>
      <point x="545" y="218"></point>
      <point x="389" y="90" type="curve" smooth="yes"></point>
      <point x="350" y="59"></point>
      <point x="270" y="-4"></point>
      <point x="247" y="-4" type="curve" smooth="yes"></point>
      <point x="222" y="-4"></point>
      <point x="172" y="8"></point>
    </contour>
    <contour>
      <point x="268" y="100" type="line"></point>
      <point x="278" y="100" type="line"></point>
      <point x="548" y="243"></point>
      <point x="592" y="681"></point>
      <point x="592" y="874" type="curve" smooth="yes"></point>
      <point x="592" y="1132"></point>
      <point x="549" y="1473"></point>
      <point x="262" y="1473" type="curve" smooth="yes"></point>
      <point x="246" y="1473"></point>
      <point x="219" y="1473"></point>
      <point x="219" y="1450" type="curve" smooth="yes"></point>
      <point x="219" y="1335"></point>
      <point x="237" y="1223"></point>
      <point x="237" y="1110" type="curve" smooth="yes"></point>
      <point x="237" y="848"></point>
      <point x="268" y="588"></point>
      <point x="268" y="330" type="curve" smooth="yes"></point>
    </contour>
  </outline>
</glyph>
<glyph name="E" format="1">
  <advance width="620"></advance>
  <unicode hex="0045"></unicode>
  <outline>
    <contour>
      <point x="192" y="33" type="curve" smooth="yes"></point>
      <point x="192" y="60"></point>
      <point x="191" y="82"></point>
      <point x="191" y="109" type="curve" smooth="yes"></point>
      <point x="191" y="113" type="line"></point>
      <point x="193" y="412" type="line"></point>
      <point x="191" y="1257" type="line" smooth="yes"></point>
      <point x="191" y="1329"></point>
      <point x="189" y="1413"></point>
      <point x="187" y="1485" type="curve" smooth="yes"></point>
      <point x="187" y="1514"></point>
      <point x="199" y="1542"></point>
      <point x="224" y="1542" type="curve" smooth="yes"></point>
      <point x="351" y="1542" type="line" smooth="yes"></point>
      <point x="380" y="1542"></point>
      <point x="414" y="1542"></point>
      <point x="414" y="1503" type="curve" smooth="yes"></point>
      <point x="414" y="1464"></point>
      <point x="369" y="1464"></point>
      <point x="340" y="1464" type="curve" smooth="yes"></point>
      <point x="322" y="1464"></point>
      <point x="292" y="1468"></point>
      <point x="274" y="1468" type="curve" smooth="yes"></point>
      <point x="258" y="1468"></point>
      <point x="250" y="1467"></point>
      <point x="250" y="1444" type="curve" smooth="yes"></point>
      <point x="250" y="1327"></point>
      <point x="251" y="1213"></point>
      <point x="251" y="1096" type="curve" smooth="yes"></point>
      <point x="251" y="840" type="line" smooth="yes"></point>
      <point x="251" y="834"></point>
      <point x="253" y="836"></point>
      <point x="259" y="836" type="curve" smooth="yes"></point>
      <point x="298" y="838"></point>
      <point x="331" y="840"></point>
      <point x="370" y="840" type="curve" smooth="yes"></point>
      <point x="396" y="840"></point>
      <point x="404" y="826"></point>
      <point x="404" y="810" type="curve" smooth="yes"></point>
      <point x="404" y="785"></point>
      <point x="396" y="776"></point>
      <point x="373" y="776" type="curve" smooth="yes"></point>
      <point x="256" y="776" type="line" smooth="yes"></point>
      <point x="251" y="776"></point>
      <point x="248" y="775"></point>
      <point x="248" y="766" type="curve" smooth="yes"></point>
      <point x="248" y="571"></point>
      <point x="256" y="358"></point>
      <point x="256" y="137" type="curve" smooth="yes"></point>
      <point x="256" y="61" type="line"></point>
      <point x="297" y="61"></point>
      <point x="389" y="62"></point>
      <point x="430" y="62" type="curve" smooth="yes"></point>
      <point x="448" y="62" type="line" smooth="yes"></point>
      <point x="466" y="62"></point>
      <point x="486" y="59"></point>
      <point x="486" y="35" type="curve" smooth="yes"></point>
      <point x="486" y="-9"></point>
      <point x="471" y="-12"></point>
      <point x="367" y="-12" type="curve" smooth="yes"></point>
      <point x="304" y="-12" type="line" smooth="yes"></point>
      <point x="280" y="-12" type="line" smooth="yes"></point>
      <point x="232" y="-12"></point>
      <point x="192" y="-9"></point>
    </contour>
  </outline>
</glyph>
<glyph name="F" format="1">
  <advance width="580"></advance>
  <unicode hex="0046"></unicode>
  <outline>
    <contour>
      <point x="251" y="-4" type="curve" smooth="yes"></point>
      <point x="220" y="-4"></point>
      <point x="218" y="26"></point>
      <point x="218" y="49" type="curve" smooth="yes"></point>
      <point x="218" y="201" type="line" smooth="yes"></point>
      <point x="218" y="240"></point>
      <point x="192" y="612"></point>
      <point x="192" y="819" type="curve" smooth="yes"></point>
      <point x="192" y="915"></point>
      <point x="163" y="1498"></point>
      <point x="163" y="1512" type="curve" smooth="yes"></point>
      <point x="163" y="1525" type="line" smooth="yes"></point>
      <point x="163" y="1546"></point>
      <point x="189" y="1549"></point>
      <point x="254" y="1549" type="curve" smooth="yes"></point>
      <point x="281" y="1549"></point>
      <point x="315" y="1548"></point>
      <point x="356" y="1548" type="curve" smooth="yes"></point>
      <point x="381" y="1548"></point>
      <point x="390" y="1521"></point>
      <point x="390" y="1501" type="curve" smooth="yes"></point>
      <point x="390" y="1481"></point>
      <point x="364" y="1481"></point>
      <point x="352" y="1481" type="curve" smooth="yes"></point>
      <point x="340" y="1481"></point>
      <point x="270" y="1483"></point>
      <point x="252" y="1483" type="curve" smooth="yes"></point>
      <point x="233" y="1483"></point>
      <point x="227" y="1482"></point>
      <point x="227" y="1443" type="curve" smooth="yes"></point>
      <point x="227" y="1398"></point>
      <point x="257" y="892"></point>
      <point x="257" y="844" type="curve"></point>
      <point x="304" y="844"></point>
      <point x="348" y="868"></point>
      <point x="395" y="868" type="curve" smooth="yes"></point>
      <point x="413" y="868"></point>
      <point x="427" y="843"></point>
      <point x="427" y="827" type="curve" smooth="yes"></point>
      <point x="427" y="768"></point>
      <point x="257" y="811"></point>
      <point x="257" y="762" type="curve" smooth="yes"></point>
      <point x="257" y="531"></point>
      <point x="296" y="303"></point>
      <point x="296" y="72" type="curve"></point>
      <point x="290" y="61" type="line"></point>
      <point x="294" y="51"></point>
      <point x="296" y="42"></point>
      <point x="296" y="34" type="curve" smooth="yes"></point>
      <point x="296" y="11"></point>
      <point x="280" y="-4"></point>
    </contour>
  </outline>
</glyph>
<glyph name="G" format="1">
  <advance width="920"></advance>
  <unicode hex="0047"></unicode>
  <outline>
    <contour>
      <point x="171" y="877" type="curve" smooth="yes"></point>
      <point x="171" y="1100"></point>
      <point x="180" y="1571"></point>
      <point x="497" y="1571" type="curve" smooth="yes"></point>
      <point x="520" y="1571"></point>
      <point x="558" y="1567"></point>
      <point x="558" y="1536" type="curve" smooth="yes"></point>
      <point x="558" y="1516"></point>
      <point x="546" y="1511"></point>
      <point x="528" y="1511" type="curve" smooth="yes"></point>
      <point x="508" y="1511"></point>
      <point x="490" y="1522"></point>
      <point x="470" y="1522" type="curve" smooth="yes"></point>
      <point x="228" y="1522"></point>
      <point x="245" y="989"></point>
      <point x="241" y="827" type="curve" smooth="yes"></point>
      <point x="240" y="794"></point>
      <point x="240" y="756"></point>
      <point x="240" y="715" type="curve" smooth="yes"></point>
      <point x="240" y="436"></point>
      <point x="283" y="25"></point>
      <point x="503" y="25" type="curve" smooth="yes"></point>
      <point x="583" y="25"></point>
      <point x="634" y="61"></point>
      <point x="677" y="127" type="curve"></point>
      <point x="677" y="166"></point>
      <point x="671" y="391"></point>
      <point x="624" y="391" type="curve" smooth="yes"></point>
      <point x="597" y="391"></point>
      <point x="571" y="383"></point>
      <point x="542" y="383" type="curve" smooth="yes"></point>
      <point x="519" y="383"></point>
      <point x="495" y="389"></point>
      <point x="495" y="418" type="curve" smooth="yes"></point>
      <point x="495" y="447"></point>
      <point x="623" y="463"></point>
      <point x="648" y="463" type="curve" smooth="yes"></point>
      <point x="697" y="463"></point>
      <point x="712" y="418"></point>
      <point x="712" y="377" type="curve" smooth="yes"></point>
      <point x="712" y="254"></point>
      <point x="753" y="135"></point>
      <point x="753" y="12" type="curve" smooth="yes"></point>
      <point x="753" y="-4"></point>
      <point x="746" y="-20"></point>
      <point x="726" y="-20" type="curve" smooth="yes"></point>
      <point x="697" y="-20"></point>
      <point x="677" y="-6"></point>
      <point x="677" y="25" type="curve" smooth="yes"></point>
      <point x="677" y="27"></point>
      <point x="679" y="33"></point>
      <point x="679" y="35" type="curve"></point>
      <point x="601" y="-10"></point>
      <point x="532" y="-33"></point>
      <point x="473" y="-33" type="curve" smooth="yes"></point>
      <point x="264" y="-33"></point>
      <point x="171" y="255"></point>
    </contour>
  </outline>
</glyph>
<glyph name="I" format="1">
  <advance width="660"></advance>
  <unicode hex="0049"></unicode>
  <outline>
    <contour>
      <point x="289" y="70" type="line"></point>
      <point x="289" y="429"></point>
      <point x="268" y="765"></point>
      <point x="259" y="1114" type="curve"></point>
      <point x="259" y="1159"></point>
      <point x="261" y="1266"></point>
      <point x="261" y="1354" type="curve" smooth="yes"></point>
      <point x="261" y="1407"></point>
      <point x="261" y="1464"></point>
      <point x="255" y="1484" type="curve"></point>
      <point x="185" y="1484" type="line" smooth="yes"></point>
      <point x="167" y="1484"></point>
      <point x="163" y="1499"></point>
      <point x="163" y="1513" type="curve" smooth="yes"></point>
      <point x="163" y="1543"></point>
      <point x="177" y="1548"></point>
      <point x="256" y="1548" type="curve" smooth="yes"></point>
      <point x="289" y="1548"></point>
      <point x="333" y="1547"></point>
      <point x="392" y="1547" type="curve" smooth="yes"></point>
      <point x="410" y="1547"></point>
      <point x="429" y="1538"></point>
      <point x="429" y="1518" type="curve" smooth="yes"></point>
      <point x="429" y="1504"></point>
      <point x="422" y="1485"></point>
      <point x="404" y="1485" type="curve" smooth="yes"></point>
      <point x="386" y="1485"></point>
      <point x="369" y="1487"></point>
      <point x="355" y="1487" type="curve" smooth="yes"></point>
      <point x="322" y="1487"></point>
      <point x="306" y="1487"></point>
      <point x="306" y="1474" type="curve" smooth="yes"></point>
      <point x="306" y="1083"></point>
      <point x="357" y="577"></point>
      <point x="357" y="184" type="curve" smooth="yes"></point>
      <point x="357" y="149"></point>
      <point x="355" y="106"></point>
      <point x="355" y="71" type="curve"></point>
      <point x="429" y="71" type="line" smooth="yes"></point>
      <point x="463" y="71"></point>
      <point x="475" y="57"></point>
      <point x="475" y="42" type="curve" smooth="yes"></point>
      <point x="475" y="26"></point>
      <point x="461" y="8"></point>
      <point x="447" y="8" type="curve" smooth="yes"></point>
      <point x="361" y="8"></point>
      <point x="311" y="10"></point>
      <point x="211" y="10" type="curve" smooth="yes"></point>
      <point x="189" y="10"></point>
      <point x="175" y="28"></point>
      <point x="175" y="44" type="curve" smooth="yes"></point>
      <point x="175" y="58"></point>
      <point x="185" y="70"></point>
      <point x="209" y="70" type="curve" smooth="yes"></point>
    </contour>
  </outline>
</glyph>
<glyph name="J" format="1">
  <advance width="620"></advance>
  <unicode hex="004A"></unicode>
  <outline>
    <contour>
      <point x="188" y="-160" type="curve"></point>
      <point x="190" y="-133"></point>
      <point x="244" y="-110"></point>
      <point x="262" y="-92" type="curve" smooth="yes"></point>
      <point x="344" y="-10"></point>
      <point x="352" y="135"></point>
      <point x="352" y="221" type="curve" smooth="yes"></point>
      <point x="352" y="414"></point>
      <point x="334" y="608"></point>
      <point x="330" y="801" type="curve" smooth="yes"></point>
      <point x="325" y="1026"></point>
      <point x="309" y="1261"></point>
      <point x="309" y="1489" type="curve"></point>
      <point x="272" y="1489"></point>
      <point x="223" y="1485"></point>
      <point x="186" y="1485" type="curve" smooth="yes"></point>
      <point x="170" y="1485"></point>
      <point x="158" y="1500"></point>
      <point x="158" y="1516" type="curve" smooth="yes"></point>
      <point x="158" y="1548"></point>
      <point x="174" y="1554"></point>
      <point x="253" y="1554" type="curve" smooth="yes"></point>
      <point x="295" y="1554"></point>
      <point x="355" y="1552"></point>
      <point x="440" y="1552" type="curve" smooth="yes"></point>
      <point x="458" y="1552"></point>
      <point x="473" y="1538"></point>
      <point x="473" y="1520" type="curve" smooth="yes"></point>
      <point x="473" y="1492"></point>
      <point x="457" y="1489"></point>
      <point x="417" y="1489" type="curve" smooth="yes"></point>
      <point x="371" y="1489" type="line"></point>
      <point x="371" y="1077"></point>
      <point x="416" y="451"></point>
      <point x="416" y="305" type="curve" smooth="yes"></point>
      <point x="416" y="75"></point>
      <point x="404" y="-79"></point>
      <point x="231" y="-199" type="curve"></point>
      <point x="204" y="-199"></point>
      <point x="188" y="-187"></point>
    </contour>
  </outline>
</glyph>
<glyph name="K" format="1">
  <advance width="820"></advance>
  <unicode hex="004B"></unicode>
  <outline>
    <contour>
      <point x="361" y="884" type="curve"></point>
      <point x="347" y="919" type="line"></point>
      <point x="338" y="902"></point>
      <point x="271" y="792"></point>
      <point x="254" y="763" type="curve"></point>
      <point x="254" y="73" type="line" smooth="yes"></point>
      <point x="254" y="34" type="line" smooth="yes"></point>
      <point x="254" y="-4"></point>
      <point x="251" y="-26"></point>
      <point x="221" y="-26" type="curve" smooth="yes"></point>
      <point x="190" y="-26"></point>
      <point x="187" y="-5"></point>
      <point x="187" y="38" type="curve" smooth="yes"></point>
      <point x="187" y="657" type="line" smooth="yes"></point>
      <point x="187" y="901"></point>
      <point x="196" y="1199"></point>
      <point x="196" y="1443" type="curve" smooth="yes"></point>
      <point x="196" y="1496"></point>
      <point x="198" y="1540"></point>
      <point x="223" y="1540" type="curve" smooth="yes"></point>
      <point x="264" y="1540"></point>
      <point x="267" y="1526"></point>
      <point x="267" y="1453" type="curve" smooth="yes"></point>
      <point x="267" y="1281"></point>
      <point x="260" y="911"></point>
      <point x="260" y="864" type="curve"></point>
      <point x="262" y="864" type="line"></point>
      <point x="332" y="1011"></point>
      <point x="386" y="1163"></point>
      <point x="449" y="1313" type="curve"></point>
      <point x="465" y="1354"></point>
      <point x="561" y="1597"></point>
      <point x="594" y="1597" type="curve" smooth="yes"></point>
      <point x="612" y="1597"></point>
      <point x="629" y="1587"></point>
      <point x="629" y="1567" type="curve"></point>
      <point x="623" y="1518"></point>
      <point x="594" y="1489"></point>
      <point x="576" y="1448" type="curve" smooth="yes"></point>
      <point x="537" y="1364"></point>
      <point x="423" y="1082"></point>
      <point x="385" y="993" type="curve" smooth="yes"></point>
      <point x="381" y="983"></point>
      <point x="381" y="978"></point>
      <point x="387" y="969" type="curve"></point>
      <point x="514" y="647"></point>
      <point x="633" y="190"></point>
      <point x="684" y="12" type="curve" smooth="yes"></point>
      <point x="686" y="7"></point>
      <point x="687" y="2"></point>
      <point x="687" y="-2" type="curve" smooth="yes"></point>
      <point x="687" y="-22"></point>
      <point x="668" y="-32"></point>
      <point x="651" y="-32" type="curve" smooth="yes"></point>
      <point x="640" y="-32"></point>
      <point x="630" y="-28"></point>
      <point x="627" y="-19" type="curve" smooth="yes"></point>
      <point x="590" y="100"></point>
      <point x="412" y="737"></point>
    </contour>
  </outline>
</glyph>
<glyph name="L" format="1">
  <advance width="580"></advance>
  <unicode hex="004C"></unicode>
  <outline>
    <contour>
      <point x="211" y="31" type="curve" smooth="yes"></point>
      <point x="211" y="49"></point>
      <point x="212" y="72"></point>
      <point x="212" y="113" type="curve" smooth="yes"></point>
      <point x="212" y="306"></point>
      <point x="192" y="499"></point>
      <point x="192" y="694" type="curve" smooth="yes"></point>
      <point x="192" y="979"></point>
      <point x="171" y="1265"></point>
      <point x="171" y="1550" type="curve" smooth="yes"></point>
      <point x="171" y="1566"></point>
      <point x="187" y="1574"></point>
      <point x="201" y="1574" type="curve" smooth="yes"></point>
      <point x="224" y="1574"></point>
      <point x="237" y="1568"></point>
      <point x="237" y="1545" type="curve" smooth="yes"></point>
      <point x="237" y="1359"></point>
      <point x="237" y="1163"></point>
      <point x="245" y="977" type="curve"></point>
      <point x="255" y="610" type="line"></point>
      <point x="255" y="454"></point>
      <point x="274" y="231"></point>
      <point x="278" y="75" type="curve" smooth="yes"></point>
      <point x="278" y="68"></point>
      <point x="283" y="68"></point>
      <point x="312" y="68" type="curve" smooth="yes"></point>
      <point x="438" y="68" type="line" smooth="yes"></point>
      <point x="461" y="68"></point>
      <point x="466" y="49"></point>
      <point x="466" y="31" type="curve" smooth="yes"></point>
      <point x="466" y="15"></point>
      <point x="459" y="-9"></point>
      <point x="441" y="-9" type="curve" smooth="yes"></point>
      <point x="433" y="-9"></point>
      <point x="422" y="-11"></point>
      <point x="410" y="-11" type="curve" smooth="yes"></point>
      <point x="346" y="-12"></point>
      <point x="260" y="-12"></point>
      <point x="245" y="-12" type="curve" smooth="yes"></point>
      <point x="225" y="-12"></point>
      <point x="211" y="8"></point>
    </contour>
  </outline>
</glyph>
<glyph name="M" format="1">
  <advance width="980"></advance>
  <unicode hex="004D"></unicode>
  <outline>
    <contour>
      <point x="741" y="10" type="curve" smooth="yes"></point>
      <point x="741" y="197" type="line" smooth="yes"></point>
      <point x="741" y="422"></point>
      <point x="726" y="645"></point>
      <point x="726" y="870" type="curve" smooth="yes"></point>
      <point x="726" y="946"></point>
      <point x="730" y="1024"></point>
      <point x="730" y="1100" type="curve" smooth="yes"></point>
      <point x="730" y="1161"></point>
      <point x="724" y="1221"></point>
      <point x="722" y="1282" type="curve"></point>
      <point x="718" y="1278"></point>
      <point x="719" y="1274"></point>
      <point x="718" y="1268" type="curve" smooth="yes"></point>
      <point x="678" y="1011"></point>
      <point x="593" y="570"></point>
      <point x="575" y="483" type="curve" smooth="yes"></point>
      <point x="568" y="450"></point>
      <point x="545" y="338"></point>
      <point x="538" y="296" type="curve" smooth="yes"></point>
      <point x="532" y="260"></point>
      <point x="511" y="238"></point>
      <point x="491" y="238" type="curve" smooth="yes"></point>
      <point x="472" y="238"></point>
      <point x="453" y="258"></point>
      <point x="448" y="302" type="curve" smooth="yes"></point>
      <point x="436" y="392"></point>
      <point x="263" y="1292"></point>
      <point x="245" y="1317" type="curve"></point>
      <point x="239" y="1178"></point>
      <point x="237" y="1040"></point>
      <point x="237" y="903" type="curve" smooth="yes"></point>
      <point x="237" y="686"></point>
      <point x="243" y="469"></point>
      <point x="243" y="252" type="curve" smooth="yes"></point>
      <point x="243" y="186"></point>
      <point x="253" y="123"></point>
      <point x="253" y="57" type="curve" smooth="yes"></point>
      <point x="253" y="34"></point>
      <point x="253" y="20"></point>
      <point x="237" y="4" type="curve"></point>
      <point x="186" y="4"></point>
      <point x="179" y="62"></point>
      <point x="179" y="111" type="curve" smooth="yes"></point>
      <point x="179" y="453" type="line" smooth="yes"></point>
      <point x="179" y="590"></point>
      <point x="182" y="729"></point>
      <point x="182" y="868" type="curve" smooth="yes"></point>
      <point x="182" y="1030"></point>
      <point x="188" y="1192"></point>
      <point x="188" y="1354" type="curve" smooth="yes"></point>
      <point x="188" y="1533" type="line" smooth="yes"></point>
      <point x="188" y="1548"></point>
      <point x="204" y="1561"></point>
      <point x="218" y="1561" type="curve" smooth="yes"></point>
      <point x="227" y="1561"></point>
      <point x="235" y="1556"></point>
      <point x="239" y="1544" type="curve" smooth="yes"></point>
      <point x="259" y="1479"></point>
      <point x="387" y="971"></point>
      <point x="442" y="717" type="curve" smooth="yes"></point>
      <point x="456" y="654"></point>
      <point x="496" y="413"></point>
      <point x="502" y="376" type="curve"></point>
      <point x="514" y="438"></point>
      <point x="555" y="692"></point>
      <point x="565" y="739" type="curve" smooth="yes"></point>
      <point x="600" y="907"></point>
      <point x="628" y="1073"></point>
      <point x="659" y="1241" type="curve" smooth="yes"></point>
      <point x="677" y="1341"></point>
      <point x="705" y="1490"></point>
      <point x="710" y="1523" type="curve" smooth="yes"></point>
      <point x="715" y="1552"></point>
      <point x="730" y="1566"></point>
      <point x="745" y="1566" type="curve" smooth="yes"></point>
      <point x="759" y="1566"></point>
      <point x="773" y="1553"></point>
      <point x="773" y="1528" type="curve" smooth="yes"></point>
      <point x="773" y="1325" type="line" smooth="yes"></point>
      <point x="773" y="1016"></point>
      <point x="806" y="706"></point>
      <point x="806" y="399" type="curve" smooth="yes"></point>
      <point x="806" y="273"></point>
      <point x="816" y="198"></point>
      <point x="816" y="24" type="curve" smooth="yes"></point>
      <point x="816" y="-42"></point>
      <point x="803" y="-47"></point>
      <point x="786" y="-47" type="curve" smooth="yes"></point>
      <point x="743" y="-47"></point>
      <point x="741" y="-20"></point>
    </contour>
  </outline>
</glyph>
<glyph name="N" format="1">
  <advance width="900"></advance>
  <unicode hex="004E"></unicode>
  <outline>
    <contour>
      <point x="244" y="1426" type="curve"></point>
      <point x="242" y="1406"></point>
      <point x="242" y="1361"></point>
      <point x="242" y="1341" type="curve" smooth="yes"></point>
      <point x="242" y="600" type="line" smooth="yes"></point>
      <point x="242" y="403"></point>
      <point x="252" y="213"></point>
      <point x="252" y="16" type="curve"></point>
      <point x="238" y="0" type="line"></point>
      <point x="191" y="0" type="line"></point>
      <point x="185" y="16" type="line"></point>
      <point x="189" y="32"></point>
      <point x="189" y="80"></point>
      <point x="189" y="98" type="curve" smooth="yes"></point>
      <point x="189" y="336"></point>
      <point x="184" y="573"></point>
      <point x="184" y="811" type="curve" smooth="yes"></point>
      <point x="184" y="1079" type="line" smooth="yes"></point>
      <point x="184" y="1208"></point>
      <point x="181" y="1337"></point>
      <point x="181" y="1466" type="curve" smooth="yes"></point>
      <point x="181" y="1480"></point>
      <point x="179" y="1495"></point>
      <point x="179" y="1509" type="curve" smooth="yes"></point>
      <point x="179" y="1546"></point>
      <point x="201" y="1552"></point>
      <point x="234" y="1552" type="curve" smooth="yes"></point>
      <point x="252" y="1552"></point>
      <point x="276" y="1532"></point>
      <point x="281" y="1513" type="curve" smooth="yes"></point>
      <point x="308" y="1404"></point>
      <point x="340" y="1232"></point>
      <point x="373" y="1096" type="curve" smooth="yes"></point>
      <point x="403" y="972"></point>
      <point x="472" y="723"></point>
      <point x="521" y="539" type="curve"></point>
      <point x="542" y="452"></point>
      <point x="587" y="272"></point>
      <point x="627" y="150" type="curve"></point>
      <point x="639" y="177"></point>
      <point x="640" y="219"></point>
      <point x="640" y="248" type="curve" smooth="yes"></point>
      <point x="640" y="486"></point>
      <point x="648" y="723"></point>
      <point x="648" y="961" type="curve" smooth="yes"></point>
      <point x="648" y="1067"></point>
      <point x="651" y="1172"></point>
      <point x="651" y="1278" type="curve" smooth="yes"></point>
      <point x="649" y="1567" type="line"></point>
      <point x="655" y="1587"></point>
      <point x="671" y="1595"></point>
      <point x="691" y="1595" type="curve" smooth="yes"></point>
      <point x="704" y="1595"></point>
      <point x="707" y="1566"></point>
      <point x="707" y="1535" type="curve" smooth="yes"></point>
      <point x="707" y="1506"></point>
      <point x="704" y="1475"></point>
      <point x="704" y="1460" type="curve" smooth="yes"></point>
      <point x="704" y="1329" type="line" smooth="yes"></point>
      <point x="704" y="1000"></point>
      <point x="699" y="685"></point>
      <point x="699" y="360" type="curve" smooth="yes"></point>
      <point x="699" y="255"></point>
      <point x="689" y="142"></point>
      <point x="689" y="37" type="curve" smooth="yes"></point>
      <point x="689" y="2"></point>
      <point x="676" y="-23"></point>
      <point x="637" y="-23" type="curve" smooth="yes"></point>
      <point x="590" y="-23"></point>
      <point x="589" y="63"></point>
      <point x="580" y="94" type="curve" smooth="yes"></point>
      <point x="535" y="256"></point>
      <point x="369" y="846"></point>
      <point x="328" y="1016" type="curve" smooth="yes"></point>
      <point x="300" y="1133"></point>
      <point x="257" y="1361"></point>
    </contour>
  </outline>
</glyph>
<glyph name="O" format="1">
  <advance width="840"></advance>
  <unicode hex="004F"></unicode>
  <outline>
    <contour>
      <point x="171" y="1025" type="line" smooth="yes"></point>
      <point x="171" y="1272"></point>
      <point x="194" y="1571"></point>
      <point x="373" y="1571" type="curve" smooth="yes"></point>
      <point x="554" y="1571"></point>
      <point x="595" y="1399"></point>
      <point x="617" y="1239" type="curve" smooth="yes"></point>
      <point x="646" y="1032"></point>
      <point x="666" y="827"></point>
      <point x="666" y="618" type="curve" smooth="yes"></point>
      <point x="666" y="412"></point>
      <point x="667" y="-43"></point>
      <point x="455" y="-43" type="curve" smooth="yes"></point>
      <point x="184" y="-43"></point>
      <point x="171" y="637"></point>
      <point x="171" y="942" type="curve" smooth="yes"></point>
    </contour>
    <contour>
      <point x="383" y="1518" type="curve" smooth="yes"></point>
      <point x="236" y="1518"></point>
      <point x="232" y="1059"></point>
      <point x="232" y="931" type="curve" smooth="yes"></point>
      <point x="232" y="911" type="line" smooth="yes"></point>
      <point x="232" y="831" type="line" smooth="yes"></point>
      <point x="232" y="690"></point>
      <point x="273" y="14"></point>
      <point x="459" y="14" type="curve" smooth="yes"></point>
      <point x="602" y="14"></point>
      <point x="606" y="540"></point>
      <point x="606" y="653" type="curve" smooth="yes"></point>
      <point x="606" y="662" type="line" smooth="yes"></point>
      <point x="606" y="834"></point>
      <point x="604" y="1518"></point>
    </contour>
  </outline>
</glyph>
<glyph name="P" format="1">
  <advance width="660"></advance>
  <unicode hex="0050"></unicode>
  <outline>
    <contour>
      <point x="222" y="-12" type="curve" smooth="yes"></point>
      <point x="197" y="-12"></point>
      <point x="197" y="45"></point>
      <point x="197" y="59" type="curve" smooth="yes"></point>
      <point x="197" y="182"></point>
      <point x="191" y="303"></point>
      <point x="191" y="426" type="curve" smooth="yes"></point>
      <point x="191" y="537"></point>
      <point x="189" y="647"></point>
      <point x="189" y="758" type="curve" smooth="yes"></point>
      <point x="189" y="928"></point>
      <point x="185" y="1098"></point>
      <point x="179" y="1266" type="curve" smooth="yes"></point>
      <point x="175" y="1352"></point>
      <point x="171" y="1500"></point>
      <point x="171" y="1536" type="curve"></point>
      <point x="183" y="1554"></point>
      <point x="186" y="1565"></point>
      <point x="209" y="1565" type="curve" smooth="yes"></point>
      <point x="412" y="1565"></point>
      <point x="506" y="1364"></point>
      <point x="506" y="1186" type="curve" smooth="yes"></point>
      <point x="506" y="1021"></point>
      <point x="414" y="761"></point>
      <point x="250" y="725" type="curve"></point>
      <point x="250" y="500"></point>
      <point x="267" y="276"></point>
      <point x="267" y="51" type="curve" smooth="yes"></point>
      <point x="267" y="18"></point>
      <point x="263" y="-12"></point>
    </contour>
    <contour>
      <point x="222" y="1505" type="curve"></point>
      <point x="222" y="1272"></point>
      <point x="246" y="1038"></point>
      <point x="246" y="805" type="curve"></point>
      <point x="250" y="801" type="line"></point>
      <point x="281" y="803"></point>
      <point x="296" y="828"></point>
      <point x="316" y="848" type="curve" smooth="yes"></point>
      <point x="414" y="946"></point>
      <point x="449" y="1053"></point>
      <point x="449" y="1182" type="curve" smooth="yes"></point>
      <point x="449" y="1321"></point>
      <point x="401" y="1505"></point>
    </contour>
  </outline>
</glyph>
<glyph name="Q" format="1">
  <advance width="860"></advance>
  <unicode hex="0051"></unicode>
  <outline>
    <contour>
      <point x="651" y="-283" type="curve" smooth="yes"></point>
      <point x="637" y="-283"></point>
      <point x="606" y="-262"></point>
      <point x="590" y="-256" type="curve" smooth="yes"></point>
      <point x="504" y="-219"></point>
      <point x="508" y="-63"></point>
      <point x="481" y="27" type="curve"></point>
      <point x="192" y="27"></point>
      <point x="180" y="381"></point>
      <point x="180" y="573" type="curve" smooth="yes"></point>
      <point x="180" y="631"></point>
      <point x="179" y="697"></point>
      <point x="179" y="765" type="curve" smooth="yes"></point>
      <point x="179" y="1127"></point>
      <point x="195" y="1577"></point>
      <point x="391" y="1577" type="curve" smooth="yes"></point>
      <point x="487" y="1577"></point>
      <point x="600" y="1485"></point>
      <point x="616" y="1391" type="curve" smooth="yes"></point>
      <point x="661" y="1137"></point>
      <point x="672" y="852"></point>
      <point x="672" y="594" type="curve" smooth="yes"></point>
      <point x="672" y="369"></point>
      <point x="640" y="189"></point>
      <point x="545" y="53" type="curve"></point>
      <point x="547" y="28"></point>
      <point x="559" y="9"></point>
      <point x="565" y="-14" type="curve" smooth="yes"></point>
      <point x="581" y="-73"></point>
      <point x="563" y="-217"></point>
      <point x="657" y="-217" type="curve" smooth="yes"></point>
      <point x="665" y="-217" type="line" smooth="yes"></point>
      <point x="687" y="-217"></point>
      <point x="729" y="-219"></point>
      <point x="729" y="-244" type="curve" smooth="yes"></point>
      <point x="729" y="-283"></point>
      <point x="678" y="-283"></point>
    </contour>
    <contour>
      <point x="238" y="676" type="line" smooth="yes"></point>
      <point x="238" y="590" type="line" smooth="yes"></point>
      <point x="238" y="457"></point>
      <point x="271" y="80"></point>
      <point x="457" y="80" type="curve" smooth="yes"></point>
      <point x="558" y="80"></point>
      <point x="600" y="329"></point>
      <point x="600" y="887" type="curve" smooth="yes"></point>
      <point x="600" y="941" type="line" smooth="yes"></point>
      <point x="600" y="1161"></point>
      <point x="592" y="1520"></point>
      <point x="387" y="1520" type="curve" smooth="yes"></point>
      <point x="253" y="1520"></point>
      <point x="238" y="900"></point>
      <point x="238" y="713" type="curve" smooth="yes"></point>
    </contour>
  </outline>
</glyph>
<glyph name="R" format="1">
  <advance width="700"></advance>
  <unicode hex="0052"></unicode>
  <outline>
    <contour>
      <point x="505" y="20" type="curve"></point>
      <point x="495" y="62"></point>
      <point x="425" y="295"></point>
      <point x="396" y="432" type="curve"></point>
      <point x="365" y="571"></point>
      <point x="340" y="733"></point>
      <point x="303" y="870" type="curve"></point>
      <point x="294" y="866"></point>
      <point x="267" y="848"></point>
      <point x="255" y="846" type="curve"></point>
      <point x="259" y="57" type="line"></point>
      <point x="259" y="27" type="line" smooth="yes"></point>
      <point x="259" y="2"></point>
      <point x="251" y="-14"></point>
      <point x="222" y="-14" type="curve" smooth="yes"></point>
      <point x="202" y="-14"></point>
      <point x="187" y="0"></point>
      <point x="187" y="20" type="curve" smooth="yes"></point>
      <point x="187" y="51" type="line" smooth="yes"></point>
      <point x="187" y="465"></point>
      <point x="202" y="860"></point>
      <point x="202" y="1274" type="curve" smooth="yes"></point>
      <point x="202" y="1538" type="line" smooth="yes"></point>
      <point x="202" y="1554"></point>
      <point x="225" y="1556"></point>
      <point x="239" y="1556" type="curve" smooth="yes"></point>
      <point x="395" y="1556"></point>
      <point x="466" y="1383"></point>
      <point x="466" y="1231" type="curve" smooth="yes"></point>
      <point x="466" y="1161"></point>
      <point x="450" y="1092"></point>
      <point x="425" y="1026" type="curve"></point>
      <point x="417" y="1001"></point>
      <point x="385" y="926"></point>
      <point x="363" y="902" type="curve"></point>
      <point x="378" y="846"></point>
      <point x="557" y="147"></point>
      <point x="583" y="47" type="curve" smooth="yes"></point>
      <point x="585" y="40"></point>
      <point x="586" y="32"></point>
      <point x="586" y="24" type="curve" smooth="yes"></point>
      <point x="586" y="1"></point>
      <point x="576" y="-20"></point>
      <point x="556" y="-20" type="curve" smooth="yes"></point>
      <point x="531" y="-20"></point>
      <point x="513" y="-8"></point>
    </contour>
    <contour>
      <point x="254" y="1491" type="curve"></point>
      <point x="254" y="913" type="line"></point>
      <point x="283" y="913"></point>
      <point x="350" y="994"></point>
      <point x="364" y="1018" type="curve"></point>
      <point x="387" y="1061"></point>
      <point x="398" y="1157"></point>
      <point x="398" y="1206" type="curve" smooth="yes"></point>
      <point x="398" y="1287"></point>
      <point x="368" y="1492"></point>
      <point x="264" y="1492" type="curve" smooth="yes"></point>
      <point x="261" y="1492"></point>
      <point x="257" y="1491"></point>
    </contour>
  </outline>
</glyph>
<glyph name="T" format="1">
  <advance width="720"></advance>
  <unicode hex="0054"></unicode>
  <outline>
    <contour>
      <point x="340" y="40" type="curve" smooth="yes"></point>
      <point x="341" y="96"></point>
      <point x="341" y="160"></point>
      <point x="341" y="223" type="curve" smooth="yes"></point>
      <point x="341" y="406" type="line" smooth="yes"></point>
      <point x="341" y="623"></point>
      <point x="331" y="842"></point>
      <point x="331" y="1061" type="curve" smooth="yes"></point>
      <point x="331" y="1104"></point>
      <point x="333" y="1112"></point>
      <point x="333" y="1253" type="curve" smooth="yes"></point>
      <point x="333" y="1351"></point>
      <point x="329" y="1474"></point>
      <point x="328" y="1474" type="curve" smooth="yes"></point>
      <point x="97" y="1474" type="line" smooth="yes"></point>
      <point x="79" y="1474"></point>
      <point x="54" y="1482"></point>
      <point x="54" y="1505" type="curve" smooth="yes"></point>
      <point x="54" y="1529"></point>
      <point x="60" y="1544"></point>
      <point x="175" y="1544" type="curve" smooth="yes"></point>
      <point x="229" y="1544"></point>
      <point x="524" y="1546"></point>
      <point x="605" y="1546" type="curve" smooth="yes"></point>
      <point x="643" y="1546"></point>
      <point x="648" y="1531"></point>
      <point x="648" y="1511" type="curve" smooth="yes"></point>
      <point x="648" y="1486"></point>
      <point x="632" y="1481"></point>
      <point x="609" y="1481" type="curve" smooth="yes"></point>
      <point x="586" y="1481"></point>
      <point x="449" y="1480"></point>
      <point x="426" y="1480" type="curve" smooth="yes"></point>
      <point x="400" y="1480"></point>
      <point x="409" y="1477"></point>
      <point x="409" y="1478" type="curve"></point>
      <point x="409" y="1440"></point>
      <point x="410" y="1290"></point>
      <point x="410" y="1200" type="curve" smooth="yes"></point>
      <point x="410" y="952" type="line" smooth="yes"></point>
      <point x="410" y="368" type="line" smooth="yes"></point>
      <point x="410" y="314"></point>
      <point x="412" y="78"></point>
      <point x="412" y="48" type="curve" smooth="yes"></point>
      <point x="412" y="42" type="line" smooth="yes"></point>
      <point x="412" y="13"></point>
      <point x="411" y="-12"></point>
      <point x="382" y="-12" type="curve" smooth="yes"></point>
      <point x="351" y="-12"></point>
      <point x="340" y="15"></point>
    </contour>
  </outline>
</glyph>
<glyph name="W" format="1">
  <advance width="960"></advance>
  <unicode hex="0057"></unicode>
  <outline>
    <contour>
      <point x="357" y="90" type="line"></point>
      <point x="376" y="284"></point>
      <point x="443" y="1030"></point>
      <point x="459" y="1209" type="curve" smooth="yes"></point>
      <point x="459" y="1211"></point>
      <point x="461" y="1211"></point>
      <point x="461" y="1213" type="curve"></point>
      <point x="467" y="1209" type="line"></point>
      <point x="496" y="971"></point>
      <point x="580" y="322"></point>
      <point x="615" y="86" type="curve" smooth="yes"></point>
      <point x="623" y="33"></point>
      <point x="609" y="-27"></point>
      <point x="664" y="-27" type="curve" smooth="yes"></point>
      <point x="697" y="-27"></point>
      <point x="701" y="-4"></point>
      <point x="701" y="23" type="curve" smooth="yes"></point>
      <point x="701" y="46"></point>
      <point x="743" y="384"></point>
      <point x="752" y="496" type="curve"></point>
      <point x="771" y="648"></point>
      <point x="810" y="1138"></point>
      <point x="849" y="1462" type="curve" smooth="yes"></point>
      <point x="851" y="1476"></point>
      <point x="857" y="1491"></point>
      <point x="857" y="1507" type="curve" smooth="yes"></point>
      <point x="857" y="1511"></point>
      <point x="857" y="1516"></point>
      <point x="855" y="1520" type="curve"></point>
      <point x="865" y="1528"></point>
      <point x="877" y="1545"></point>
      <point x="877" y="1559" type="curve" smooth="yes"></point>
      <point x="877" y="1577"></point>
      <point x="854" y="1591"></point>
      <point x="838" y="1591" type="curve" smooth="yes"></point>
      <point x="793" y="1591"></point>
      <point x="785" y="1571"></point>
      <point x="785" y="1542" type="curve" smooth="yes"></point>
      <point x="785" y="1530"></point>
      <point x="787" y="1517"></point>
      <point x="787" y="1503" type="curve" smooth="yes"></point>
      <point x="787" y="1329"></point>
      <point x="750" y="1155"></point>
      <point x="740" y="981" type="curve"></point>
      <point x="664" y="152" type="line"></point>
      <point x="658" y="156" type="line"></point>
      <point x="635" y="396"></point>
      <point x="505" y="1236"></point>
      <point x="488" y="1323" type="curve" smooth="yes"></point>
      <point x="481" y="1354"></point>
      <point x="486" y="1386"></point>
      <point x="437" y="1386" type="curve"></point>
      <point x="421" y="1378"></point>
      <point x="424" y="1366"></point>
      <point x="422" y="1346" type="curve" smooth="yes"></point>
      <point x="419" y="1308"></point>
      <point x="415" y="1238"></point>
      <point x="410" y="1184" type="curve" smooth="yes"></point>
      <point x="398" y="1069"></point>
      <point x="370" y="953"></point>
      <point x="362" y="838" type="curve"></point>
      <point x="348" y="673"></point>
      <point x="329" y="282"></point>
      <point x="316" y="179" type="curve"></point>
      <point x="312" y="179" type="line"></point>
      <point x="281" y="445"></point>
      <point x="204" y="1166"></point>
      <point x="179" y="1432" type="curve" smooth="yes"></point>
      <point x="178" y="1440"></point>
      <point x="178" y="1447"></point>
      <point x="178" y="1454" type="curve" smooth="yes"></point>
      <point x="178" y="1469"></point>
      <point x="179" y="1481"></point>
      <point x="179" y="1493" type="curve" smooth="yes"></point>
      <point x="179" y="1522"></point>
      <point x="172" y="1540"></point>
      <point x="126" y="1540" type="curve" smooth="yes"></point>
      <point x="110" y="1540"></point>
      <point x="91" y="1527"></point>
      <point x="83" y="1513" type="curve"></point>
      <point x="114" y="1464"></point>
      <point x="207" y="581"></point>
      <point x="230" y="434" type="curve" smooth="yes"></point>
      <point x="244" y="340"></point>
      <point x="277" y="152"></point>
      <point x="285" y="74" type="curve" smooth="yes"></point>
      <point x="285" y="71"></point>
      <point x="285" y="67"></point>
      <point x="285" y="64" type="curve" smooth="yes"></point>
      <point x="285" y="50"></point>
      <point x="283" y="34"></point>
      <point x="283" y="19" type="curve" smooth="yes"></point>
      <point x="283" y="-6"></point>
      <point x="289" y="-27"></point>
      <point x="322" y="-27" type="curve" smooth="yes"></point>
      <point x="354" y="-27"></point>
      <point x="357" y="20"></point>
      <point x="357" y="54" type="curve" smooth="yes"></point>
      <point x="357" y="66"></point>
      <point x="357" y="76"></point>
      <point x="357" y="82" type="curve" smooth="yes"></point>
    </contour>
  </outline>
</glyph>
<glyph name="X" format="1">
  <advance width="680"></advance>
  <unicode hex="0058"></unicode>
  <outline>
    <contour>
      <point x="139" y="12" type="curve" smooth="yes"></point>
      <point x="139" y="39"></point>
      <point x="167" y="135"></point>
      <point x="177" y="170" type="curve" smooth="yes"></point>
      <point x="212" y="301"></point>
      <point x="245" y="434"></point>
      <point x="272" y="565" type="curve" smooth="yes"></point>
      <point x="288" y="645"></point>
      <point x="311" y="739"></point>
      <point x="311" y="821" type="curve" smooth="yes"></point>
      <point x="311" y="979"></point>
      <point x="260" y="1134"></point>
      <point x="229" y="1288" type="curve" smooth="yes"></point>
      <point x="215" y="1358"></point>
      <point x="180" y="1423"></point>
      <point x="178" y="1495" type="curve"></point>
      <point x="184" y="1505"></point>
      <point x="199" y="1522"></point>
      <point x="211" y="1522" type="curve" smooth="yes"></point>
      <point x="262" y="1522"></point>
      <point x="248" y="1467"></point>
      <point x="254" y="1434" type="curve" smooth="yes"></point>
      <point x="279" y="1293"></point>
      <point x="331" y="1067"></point>
      <point x="354" y="922" type="curve"></point>
      <point x="369" y="1032"></point>
      <point x="411" y="1255"></point>
      <point x="434" y="1380" type="curve" smooth="yes"></point>
      <point x="440" y="1415"></point>
      <point x="448" y="1552"></point>
      <point x="495" y="1552" type="curve" smooth="yes"></point>
      <point x="509" y="1552"></point>
      <point x="532" y="1548"></point>
      <point x="532" y="1530" type="curve" smooth="yes"></point>
      <point x="532" y="1501"></point>
      <point x="514" y="1475"></point>
      <point x="506" y="1448" type="curve" smooth="yes"></point>
      <point x="471" y="1327"></point>
      <point x="447" y="1190"></point>
      <point x="422" y="1061" type="curve" smooth="yes"></point>
      <point x="406" y="979"></point>
      <point x="381" y="869"></point>
      <point x="381" y="791" type="curve"></point>
      <point x="489" y="238" type="line"></point>
      <point x="511" y="134" type="line"></point>
      <point x="511" y="126"></point>
      <point x="520" y="96"></point>
      <point x="520" y="70" type="curve" smooth="yes"></point>
      <point x="520" y="47"></point>
      <point x="513" y="27"></point>
      <point x="487" y="27" type="curve" smooth="yes"></point>
      <point x="469" y="27"></point>
      <point x="450" y="28"></point>
      <point x="450" y="53" type="curve" smooth="yes"></point>
      <point x="450" y="127"></point>
      <point x="431" y="207"></point>
      <point x="419" y="279" type="curve"></point>
      <point x="396" y="396"></point>
      <point x="375" y="514"></point>
      <point x="346" y="629" type="curve"></point>
      <point x="332" y="606"></point>
      <point x="233" y="131"></point>
      <point x="221" y="61" type="curve" smooth="yes"></point>
      <point x="215" y="24"></point>
      <point x="215" y="-12"></point>
      <point x="170" y="-12" type="curve" smooth="yes"></point>
      <point x="160" y="-12"></point>
      <point x="139" y="0"></point>
    </contour>
  </outline>
</glyph>
<glyph name="Z" format="1">
  <advance width="620"></advance>
  <unicode hex="005A"></unicode>
  <outline>
    <contour>
      <point x="155" y="8" type="curve"></point>
      <point x="253" y="182"></point>
      <point x="241" y="408"></point>
      <point x="280" y="588" type="curve"></point>
      <point x="311" y="813"></point>
      <point x="343" y="1043"></point>
      <point x="374" y="1268" type="curve" smooth="yes"></point>
      <point x="384" y="1344"></point>
      <point x="399" y="1423"></point>
      <point x="401" y="1499" type="curve"></point>
      <point x="356" y="1499"></point>
      <point x="310" y="1489"></point>
      <point x="263" y="1489" type="curve" smooth="yes"></point>
      <point x="236" y="1489"></point>
      <point x="171" y="1491"></point>
      <point x="171" y="1530" type="curve"></point>
      <point x="186" y="1546" type="line"></point>
      <point x="202" y="1542"></point>
      <point x="219" y="1542"></point>
      <point x="235" y="1542" type="curve" smooth="yes"></point>
      <point x="301" y="1542"></point>
      <point x="361" y="1563"></point>
      <point x="427" y="1563" type="curve" smooth="yes"></point>
      <point x="450" y="1563"></point>
      <point x="460" y="1546"></point>
      <point x="460" y="1526" type="curve"></point>
      <point x="429" y="1456"></point>
      <point x="431" y="1321"></point>
      <point x="419" y="1239" type="curve" smooth="yes"></point>
      <point x="370" y="891"></point>
      <point x="333" y="541"></point>
      <point x="276" y="195" type="curve" smooth="yes"></point>
      <point x="268" y="142"></point>
      <point x="229" y="94"></point>
      <point x="229" y="39" type="curve"></point>
      <point x="274" y="39"></point>
      <point x="317" y="49"></point>
      <point x="362" y="49" type="curve" smooth="yes"></point>
      <point x="389" y="49"></point>
      <point x="448" y="47"></point>
      <point x="448" y="8" type="curve"></point>
      <point x="429" y="-10" type="line"></point>
      <point x="347" y="-10"></point>
      <point x="268" y="-18"></point>
      <point x="186" y="-18" type="curve" smooth="yes"></point>
      <point x="168" y="-18"></point>
      <point x="161" y="-8"></point>
    </contour>
  </outline>
</glyph>
<glyph name="bracketleft" format="1">
  <advance width="620"></advance>
  <unicode hex="005B"></unicode>
  <outline>
    <contour>
      <point x="413" y="-68" type="curve" smooth="yes"></point>
      <point x="413" y="-84"></point>
      <point x="390" y="-88"></point>
      <point x="378" y="-88" type="curve" smooth="yes"></point>
      <point x="343" y="-88"></point>
      <point x="147" y="-76"></point>
      <point x="147" y="-35" type="curve" smooth="yes"></point>
      <point x="147" y="135"></point>
      <point x="190" y="301"></point>
      <point x="190" y="471" type="curve" smooth="yes"></point>
      <point x="190" y="809"></point>
      <point x="243" y="1143"></point>
      <point x="243" y="1481" type="curve" smooth="yes"></point>
      <point x="243" y="1499"></point>
      <point x="227" y="1510"></point>
      <point x="223" y="1528" type="curve"></point>
      <point x="264" y="1552" type="line"></point>
      <point x="299" y="1550"></point>
      <point x="499" y="1556"></point>
      <point x="499" y="1511" type="curve" smooth="yes"></point>
      <point x="499" y="1497"></point>
      <point x="479" y="1489"></point>
      <point x="467" y="1489" type="curve" smooth="yes"></point>
      <point x="428" y="1489"></point>
      <point x="391" y="1501"></point>
      <point x="352" y="1501" type="curve" smooth="yes"></point>
      <point x="323" y="1501"></point>
      <point x="290" y="1495"></point>
      <point x="290" y="1458" type="curve" smooth="yes"></point>
      <point x="290" y="1100"></point>
      <point x="260" y="731"></point>
      <point x="237" y="371" type="curve" smooth="yes"></point>
      <point x="235" y="330"></point>
      <point x="221" y="82"></point>
      <point x="211" y="51" type="curve"></point>
      <point x="211" y="2" type="line"></point>
      <point x="202" y="-14" type="line"></point>
      <point x="241" y="-22"></point>
      <point x="413" y="-13"></point>
    </contour>
  </outline>
</glyph>
<glyph name="backslash" format="1">
  <advance width="680"></advance>
  <unicode hex="005C"></unicode>
  <outline>
    <contour>
      <point x="504" y="-6" type="curve"></point>
      <point x="461" y="-2"></point>
      <point x="454" y="78"></point>
      <point x="444" y="121" type="curve" smooth="yes"></point>
      <point x="403" y="299" type="line"></point>
      <point x="323" y="641"></point>
      <point x="238" y="977"></point>
      <point x="172" y="1317" type="curve" smooth="yes"></point>
      <point x="168" y="1337"></point>
      <point x="131" y="1489"></point>
      <point x="131" y="1505" type="curve" smooth="yes"></point>
      <point x="131" y="1523"></point>
      <point x="146" y="1532"></point>
      <point x="162" y="1532" type="curve" smooth="yes"></point>
      <point x="178" y="1532"></point>
      <point x="192" y="1460"></point>
      <point x="196" y="1448" type="curve" smooth="yes"></point>
      <point x="288" y="1096"></point>
      <point x="372" y="741"></point>
      <point x="452" y="387" type="curve" smooth="yes"></point>
      <point x="479" y="266"></point>
      <point x="524" y="129"></point>
      <point x="524" y="31" type="curve" smooth="yes"></point>
      <point x="524" y="17"></point>
      <point x="516" y="2"></point>
    </contour>
  </outline>
</glyph>
<glyph name="bracketright" format="1">
  <advance width="740"></advance>
  <unicode hex="005D"></unicode>
  <outline>
    <contour>
      <point x="313" y="-68" type="curve" smooth="yes"></point>
      <point x="313" y="-13"></point>
      <point x="485" y="-22"></point>
      <point x="524" y="-14" type="curve"></point>
      <point x="516" y="2" type="line"></point>
      <point x="516" y="51" type="line"></point>
      <point x="491" y="106"></point>
      <point x="452" y="1061"></point>
      <point x="448" y="1204" type="curve" smooth="yes"></point>
      <point x="446" y="1288"></point>
      <point x="436" y="1374"></point>
      <point x="436" y="1458" type="curve" smooth="yes"></point>
      <point x="436" y="1485"></point>
      <point x="430" y="1499"></point>
      <point x="401" y="1499" type="curve" smooth="yes"></point>
      <point x="362" y="1499"></point>
      <point x="325" y="1491"></point>
      <point x="286" y="1491" type="curve" smooth="yes"></point>
      <point x="275" y="1491" type="line" smooth="yes"></point>
      <point x="257" y="1491"></point>
      <point x="227" y="1493"></point>
      <point x="227" y="1511" type="curve" smooth="yes"></point>
      <point x="227" y="1556"></point>
      <point x="427" y="1550"></point>
      <point x="462" y="1552" type="curve"></point>
      <point x="503" y="1528" type="line"></point>
      <point x="499" y="1510"></point>
      <point x="483" y="1499"></point>
      <point x="483" y="1481" type="curve" smooth="yes"></point>
      <point x="483" y="1157"></point>
      <point x="538" y="834"></point>
      <point x="538" y="510" type="curve" smooth="yes"></point>
      <point x="538" y="328"></point>
      <point x="579" y="147"></point>
      <point x="579" y="-35" type="curve" smooth="yes"></point>
      <point x="579" y="-76"></point>
      <point x="383" y="-88"></point>
      <point x="348" y="-88" type="curve" smooth="yes"></point>
      <point x="336" y="-88"></point>
      <point x="313" y="-84"></point>
    </contour>
  </outline>
</glyph>
<glyph name="asciicircum" format="1">
  <advance width="520"></advance>
  <unicode hex="005E"></unicode>
  <outline>
    <contour>
      <point x="227" y="1575" type="curve" smooth="yes"></point>
      <point x="227" y="1600"></point>
      <point x="237" y="1632"></point>
      <point x="266" y="1632" type="curve" smooth="yes"></point>
      <point x="295" y="1632"></point>
      <point x="317" y="1612"></point>
      <point x="317" y="1583" type="curve" smooth="yes"></point>
      <point x="317" y="1556"></point>
      <point x="305" y="1538"></point>
      <point x="276" y="1538" type="curve" smooth="yes"></point>
      <point x="251" y="1538"></point>
      <point x="227" y="1546"></point>
    </contour>
  </outline>
</glyph>
<glyph name="underscore" format="1">
  <advance width="880"></advance>
  <unicode hex="005F"></unicode>
  <outline>
    <contour>
      <point x="847" y="-44" type="curve"></point>
      <point x="785" y="-44" type="line"></point>
      <point x="785" y="-50"></point>
      <point x="684" y="-50"></point>
      <point x="571" y="-50" type="curve" smooth="yes"></point>
      <point x="269" y="-50" type="line" smooth="yes"></point>
      <point x="249" y="-50"></point>
      <point x="227" y="-38"></point>
      <point x="227" y="-15" type="curve" smooth="yes"></point>
      <point x="227" y="-9"></point>
      <point x="366" y="-9"></point>
      <point x="509" y="-9" type="curve" smooth="yes"></point>
      <point x="803" y="-9" type="line" smooth="yes"></point>
      <point x="821" y="-9"></point>
      <point x="847" y="-24"></point>
    </contour>
  </outline>
</glyph>
<glyph name="grave" format="1">
  <advance width="680"></advance>
  <unicode hex="0060"></unicode>
  <outline>
    <contour>
      <point x="330" y="1622" type="curve"></point>
      <point x="320" y="1620"></point>
      <point x="309" y="1618"></point>
      <point x="297" y="1618" type="curve" smooth="yes"></point>
      <point x="272" y="1618"></point>
      <point x="227" y="1624"></point>
      <point x="227" y="1659" type="curve" smooth="yes"></point>
      <point x="227" y="1671"></point>
      <point x="228" y="1696"></point>
      <point x="240" y="1704" type="curve"></point>
      <point x="253" y="1704" type="line" smooth="yes"></point>
      <point x="281" y="1704"></point>
      <point x="315" y="1703"></point>
      <point x="332" y="1681" type="curve"></point>
      <point x="371" y="1667"></point>
      <point x="561" y="1606"></point>
      <point x="561" y="1565" type="curve" smooth="yes"></point>
      <point x="561" y="1555"></point>
      <point x="545" y="1548"></point>
      <point x="537" y="1548" type="curve" smooth="yes"></point>
      <point x="531" y="1548"></point>
      <point x="342" y="1616"></point>
    </contour>
  </outline>
</glyph>
<glyph name="a" format="1">
  <advance width="740"></advance>
  <unicode hex="0061"></unicode>
  <outline>
    <contour>
      <point x="262" y="315" type="curve" smooth="yes"></point>
      <point x="246" y="315"></point>
      <point x="250" y="307"></point>
      <point x="246" y="299" type="curve"></point>
      <point x="242" y="258" type="line" smooth="yes"></point>
      <point x="238" y="219"></point>
      <point x="209" y="-10"></point>
      <point x="164" y="-10" type="curve" smooth="yes"></point>
      <point x="148" y="-10"></point>
      <point x="123" y="7"></point>
      <point x="123" y="25" type="curve" smooth="yes"></point>
      <point x="123" y="29"></point>
      <point x="127" y="33"></point>
      <point x="127" y="37" type="curve" smooth="yes"></point>
      <point x="186" y="270"></point>
      <point x="221" y="507"></point>
      <point x="260" y="743" type="curve" smooth="yes"></point>
      <point x="280" y="866"></point>
      <point x="314" y="987"></point>
      <point x="332" y="1112" type="curve" smooth="yes"></point>
      <point x="338" y="1157"></point>
      <point x="353" y="1339"></point>
      <point x="367" y="1364" type="curve"></point>
      <point x="375" y="1364"></point>
      <point x="385" y="1362"></point>
      <point x="395" y="1362" type="curve" smooth="yes"></point>
      <point x="409" y="1362"></point>
      <point x="422" y="1364"></point>
      <point x="432" y="1374" type="curve"></point>
      <point x="448" y="1374"></point>
      <point x="469" y="1363"></point>
      <point x="469" y="1343" type="curve" smooth="yes"></point>
      <point x="469" y="1212"></point>
      <point x="484" y="1141"></point>
      <point x="496" y="1010" type="curve" smooth="yes"></point>
      <point x="524" y="683"></point>
      <point x="580" y="254"></point>
      <point x="610" y="18" type="curve" smooth="yes"></point>
      <point x="610" y="12" type="line" smooth="yes"></point>
      <point x="610" y="0"></point>
      <point x="606" y="-11"></point>
      <point x="594" y="-18" type="curve"></point>
      <point x="557" y="-18"></point>
      <point x="549" y="-18"></point>
      <point x="543" y="27" type="curve" smooth="yes"></point>
      <point x="533" y="107"></point>
      <point x="523" y="207"></point>
      <point x="509" y="295" type="curve"></point>
      <point x="478" y="303"></point>
      <point x="439" y="305"></point>
      <point x="408" y="305" type="curve" smooth="yes"></point>
      <point x="354" y="305"></point>
      <point x="311" y="315"></point>
    </contour>
    <contour>
      <point x="264" y="376" type="curve" smooth="yes"></point>
      <point x="264" y="359"></point>
      <point x="444" y="350"></point>
      <point x="479" y="350" type="curve" smooth="yes"></point>
      <point x="500" y="350" type="line"></point>
      <point x="481" y="625"></point>
      <point x="437" y="1065"></point>
      <point x="422" y="1221" type="curve"></point>
      <point x="385" y="1039"></point>
      <point x="346" y="856"></point>
      <point x="311" y="674" type="curve" smooth="yes"></point>
      <point x="299" y="615"></point>
      <point x="264" y="431"></point>
    </contour>
  </outline>
</glyph>
<glyph name="b" format="1">
  <advance width="660"></advance>
  <unicode hex="0062"></unicode>
  <outline>
    <contour>
      <point x="173" y="20" type="curve"></point>
      <point x="171" y="40"></point>
      <point x="171" y="61"></point>
      <point x="171" y="84" type="curve" smooth="yes"></point>
      <point x="171" y="227"></point>
      <point x="192" y="373"></point>
      <point x="192" y="516" type="curve" smooth="yes"></point>
      <point x="192" y="577"></point>
      <point x="188" y="639"></point>
      <point x="188" y="698" type="curve" smooth="yes"></point>
      <point x="188" y="862"></point>
      <point x="200" y="1024"></point>
      <point x="200" y="1188" type="curve" smooth="yes"></point>
      <point x="200" y="1227"></point>
      <point x="200" y="1266"></point>
      <point x="198" y="1307" type="curve"></point>
      <point x="190" y="1317" type="line"></point>
      <point x="190" y="1329" type="line" smooth="yes"></point>
      <point x="190" y="1358"></point>
      <point x="196" y="1382"></point>
      <point x="233" y="1382" type="curve" smooth="yes"></point>
      <point x="260" y="1382"></point>
      <point x="415" y="1344"></point>
      <point x="417" y="1315" type="curve"></point>
      <point x="417" y="1315"></point>
      <point x="415" y="1311"></point>
      <point x="415" y="1309" type="curve"></point>
      <point x="468" y="1225"></point>
      <point x="479" y="1149"></point>
      <point x="479" y="1038" type="curve" smooth="yes"></point>
      <point x="479" y="954"></point>
      <point x="473" y="869"></point>
      <point x="446" y="795" type="curve"></point>
      <point x="448" y="795" type="line"></point>
      <point x="434" y="762"></point>
      <point x="406" y="729"></point>
      <point x="388" y="698" type="curve"></point>
      <point x="474" y="630"></point>
      <point x="485" y="495"></point>
      <point x="489" y="399" type="curve" smooth="yes"></point>
      <point x="491" y="346" type="line"></point>
      <point x="491" y="317" type="line" smooth="yes"></point>
      <point x="491" y="145"></point>
      <point x="405" y="-23"></point>
      <point x="212" y="-23" type="curve" smooth="yes"></point>
      <point x="187" y="-23"></point>
      <point x="173" y="-3"></point>
    </contour>
    <contour>
      <point x="253" y="248" type="curve"></point>
      <point x="243" y="230"></point>
      <point x="241" y="191"></point>
      <point x="241" y="150" type="curve" smooth="yes"></point>
      <point x="241" y="113"></point>
      <point x="243" y="77"></point>
      <point x="243" y="57" type="curve"></point>
      <point x="349" y="57"></point>
      <point x="427" y="181"></point>
      <point x="427" y="279" type="curve" smooth="yes"></point>
      <point x="427" y="281"></point>
      <point x="428" y="299"></point>
      <point x="428" y="325" type="curve" smooth="yes"></point>
      <point x="428" y="428"></point>
      <point x="412" y="668"></point>
      <point x="257" y="668" type="curve"></point>
      <point x="251" y="576"></point>
      <point x="247" y="483"></point>
      <point x="247" y="389" type="curve" smooth="yes"></point>
      <point x="247" y="342" type="line" smooth="yes"></point>
      <point x="247" y="310"></point>
      <point x="248" y="277"></point>
    </contour>
    <contour>
      <point x="251" y="766" type="line"></point>
      <point x="253" y="758"></point>
      <point x="257" y="747"></point>
      <point x="259" y="739" type="curve"></point>
      <point x="274" y="739" type="line" smooth="yes"></point>
      <point x="393" y="739"></point>
      <point x="409" y="903"></point>
      <point x="409" y="1012" type="curve" smooth="yes"></point>
      <point x="409" y="1061"></point>
      <point x="405" y="1096"></point>
      <point x="403" y="1139" type="curve"></point>
      <point x="399" y="1143" type="line"></point>
      <point x="395" y="1202"></point>
      <point x="376" y="1313"></point>
      <point x="296" y="1313" type="curve" smooth="yes"></point>
      <point x="257" y="1313"></point>
      <point x="251" y="1144"></point>
      <point x="251" y="1044" type="curve" smooth="yes"></point>
      <point x="251" y="970"></point>
      <point x="253" y="967"></point>
      <point x="253" y="934" type="curve" smooth="yes"></point>
      <point x="253" y="887"></point>
      <point x="251" y="840"></point>
      <point x="251" y="791" type="curve" smooth="yes"></point>
    </contour>
  </outline>
</glyph>
<glyph name="c" format="1">
  <advance width="720"></advance>
  <unicode hex="0063"></unicode>
  <outline>
    <contour>
      <point x="394" y="-33" type="line"></point>
      <point x="359" y="-15"></point>
      <point x="325" y="-15"></point>
      <point x="292" y="10" type="curve" smooth="yes"></point>
      <point x="179" y="92"></point>
      <point x="171" y="294"></point>
      <point x="171" y="446" type="curve" smooth="yes"></point>
      <point x="171" y="680" type="line" smooth="yes"></point>
      <point x="171" y="832"></point>
      <point x="171" y="1211"></point>
      <point x="300" y="1313" type="curve" smooth="yes"></point>
      <point x="333" y="1338"></point>
      <point x="372" y="1344"></point>
      <point x="407" y="1364" type="curve"></point>
      <point x="489" y="1364" type="line"></point>
      <point x="507" y="1360"></point>
      <point x="528" y="1358"></point>
      <point x="528" y="1333" type="curve"></point>
      <point x="501" y="1303" type="line"></point>
      <point x="415" y="1303" type="line" smooth="yes"></point>
      <point x="268" y="1303"></point>
      <point x="253" y="940"></point>
      <point x="253" y="838" type="curve"></point>
      <point x="249" y="827" type="line"></point>
      <point x="249" y="690"></point>
      <point x="241" y="551"></point>
      <point x="241" y="414" type="curve" smooth="yes"></point>
      <point x="241" y="260"></point>
      <point x="255" y="35"></point>
      <point x="458" y="35" type="curve" smooth="yes"></point>
      <point x="476" y="35"></point>
      <point x="495" y="41"></point>
      <point x="509" y="53" type="curve"></point>
      <point x="523" y="53"></point>
      <point x="540" y="47"></point>
      <point x="540" y="31" type="curve" smooth="yes"></point>
      <point x="540" y="6"></point>
      <point x="482" y="-25"></point>
      <point x="462" y="-33" type="curve"></point>
    </contour>
  </outline>
</glyph>
<glyph name="d" format="1">
  <advance width="800"></advance>
  <unicode hex="0064"></unicode>
  <outline>
    <contour>
      <point x="192" y="45" type="curve" smooth="yes"></point>
      <point x="186" y="164"></point>
      <point x="184" y="282"></point>
      <point x="184" y="401" type="curve" smooth="yes"></point>
      <point x="184" y="563"></point>
      <point x="188" y="723"></point>
      <point x="188" y="885" type="curve" smooth="yes"></point>
      <point x="188" y="1012"></point>
      <point x="186" y="1141"></point>
      <point x="180" y="1270" type="curve"></point>
      <point x="168" y="1280"></point>
      <point x="163" y="1295"></point>
      <point x="163" y="1311" type="curve" smooth="yes"></point>
      <point x="163" y="1331"></point>
      <point x="192" y="1356"></point>
      <point x="212" y="1356" type="curve" smooth="yes"></point>
      <point x="235" y="1356"></point>
      <point x="246" y="1331"></point>
      <point x="264" y="1321" type="curve" smooth="yes"></point>
      <point x="291" y="1307"></point>
      <point x="331" y="1310"></point>
      <point x="360" y="1296" type="curve" smooth="yes"></point>
      <point x="415" y="1269"></point>
      <point x="460" y="1208"></point>
      <point x="511" y="1171" type="curve"></point>
      <point x="509" y="1167" type="line"></point>
      <point x="513" y="1142"></point>
      <point x="561" y="1094"></point>
      <point x="575" y="1057" type="curve" smooth="yes"></point>
      <point x="604" y="979"></point>
      <point x="608" y="883"></point>
      <point x="608" y="813" type="curve" smooth="yes"></point>
      <point x="608" y="780"></point>
      <point x="606" y="750"></point>
      <point x="606" y="717" type="curve" smooth="yes"></point>
      <point x="606" y="706"></point>
      <point x="605" y="693"></point>
      <point x="605" y="680" type="curve" smooth="yes"></point>
      <point x="605" y="658"></point>
      <point x="607" y="635"></point>
      <point x="616" y="618" type="curve"></point>
      <point x="567" y="356"></point>
      <point x="624" y="140"></point>
      <point x="352" y="-10" type="curve"></point>
      <point x="210" y="-10" type="line" smooth="yes"></point>
      <point x="194" y="-10"></point>
      <point x="192" y="35"></point>
    </contour>
    <contour>
      <point x="276" y="76" type="line"></point>
      <point x="282" y="49" type="line"></point>
      <point x="345" y="49" type="line"></point>
      <point x="363" y="72"></point>
      <point x="378" y="80"></point>
      <point x="401" y="100" type="curve" smooth="yes"></point>
      <point x="518" y="206"></point>
      <point x="546" y="420"></point>
      <point x="546" y="592" type="curve" smooth="yes"></point>
      <point x="546" y="619"></point>
      <point x="544" y="643"></point>
      <point x="544" y="666" type="curve"></point>
      <point x="534" y="872" type="line" smooth="yes"></point>
      <point x="528" y="1009"></point>
      <point x="438" y="1262"></point>
      <point x="270" y="1262" type="curve" smooth="yes"></point>
      <point x="254" y="1262"></point>
      <point x="247" y="1094"></point>
      <point x="247" y="883" type="curve" smooth="yes"></point>
      <point x="247" y="602"></point>
      <point x="260" y="260"></point>
      <point x="270" y="119" type="curve"></point>
      <point x="268" y="80" type="line"></point>
    </contour>
  </outline>
</glyph>
<glyph name="f" format="1">
  <advance width="620"></advance>
  <unicode hex="0066"></unicode>
  <outline>
    <contour>
      <point x="163" y="2" type="line"></point>
      <point x="179" y="168"></point>
      <point x="182" y="334"></point>
      <point x="182" y="500" type="curve" smooth="yes"></point>
      <point x="182" y="774"></point>
      <point x="210" y="1051"></point>
      <point x="210" y="1325" type="curve" smooth="yes"></point>
      <point x="210" y="1352"></point>
      <point x="243" y="1364"></point>
      <point x="266" y="1364" type="curve" smooth="yes"></point>
      <point x="303" y="1364"></point>
      <point x="511" y="1350"></point>
      <point x="511" y="1305" type="curve" smooth="yes"></point>
      <point x="511" y="1274"></point>
      <point x="461" y="1270"></point>
      <point x="438" y="1270" type="curve"></point>
      <point x="405" y="1288"></point>
      <point x="362" y="1290"></point>
      <point x="325" y="1290" type="curve" smooth="yes"></point>
      <point x="278" y="1290"></point>
      <point x="296" y="1284"></point>
      <point x="278" y="1247" type="curve"></point>
      <point x="278" y="1100"></point>
      <point x="258" y="958"></point>
      <point x="258" y="815" type="curve" smooth="yes"></point>
      <point x="258" y="743" type="line" smooth="yes"></point>
      <point x="258" y="725"></point>
      <point x="395" y="754"></point>
      <point x="395" y="705" type="curve" smooth="yes"></point>
      <point x="395" y="680"></point>
      <point x="366" y="666"></point>
      <point x="346" y="666" type="curve" smooth="yes"></point>
      <point x="323" y="666"></point>
      <point x="301" y="678"></point>
      <point x="278" y="678" type="curve" smooth="yes"></point>
      <point x="241" y="678"></point>
      <point x="241" y="603"></point>
      <point x="241" y="578" type="curve" smooth="yes"></point>
      <point x="241" y="346" type="line" smooth="yes"></point>
      <point x="241" y="248"></point>
      <point x="253" y="151"></point>
      <point x="253" y="53" type="curve" smooth="yes"></point>
      <point x="253" y="20"></point>
      <point x="247" y="-29"></point>
      <point x="204" y="-29" type="curve"></point>
    </contour>
    <contour>
      <point x="176" y="1014" type="line"></point>
      <point x="176" y="1012" type="line" smooth="yes"></point>
      <point x="176" y="1010"></point>
      <point x="176" y="1010"></point>
      <point x="174" y="1010" type="curve" smooth="yes"></point>
      <point x="172" y="1010"></point>
      <point x="171" y="1010"></point>
      <point x="171" y="1012" type="curve" smooth="yes"></point>
      <point x="171" y="1014"></point>
      <point x="172" y="1014"></point>
      <point x="174" y="1014" type="curve" smooth="yes"></point>
    </contour>
  </outline>
</glyph>
<glyph name="g" format="1">
  <advance width="820"></advance>
  <unicode hex="0067"></unicode>
  <outline>
    <contour>
      <point x="155" y="623" type="curve" smooth="yes"></point>
      <point x="155" y="719"></point>
      <point x="170" y="815"></point>
      <point x="176" y="911" type="curve" smooth="yes"></point>
      <point x="188" y="1087"></point>
      <point x="194" y="1356"></point>
      <point x="434" y="1356" type="curve" smooth="yes"></point>
      <point x="461" y="1356"></point>
      <point x="497" y="1352"></point>
      <point x="497" y="1327" type="curve" smooth="yes"></point>
      <point x="497" y="1307"></point>
      <point x="472" y="1296"></point>
      <point x="456" y="1296" type="curve" smooth="yes"></point>
      <point x="444" y="1296"></point>
      <point x="429" y="1300"></point>
      <point x="417" y="1300" type="curve" smooth="yes"></point>
      <point x="231" y="1300"></point>
      <point x="231" y="758"></point>
      <point x="231" y="629" type="curve" smooth="yes"></point>
      <point x="231" y="580"></point>
      <point x="231" y="528"></point>
      <point x="237" y="479" type="curve"></point>
      <point x="300" y="383"></point>
      <point x="196" y="45"></point>
      <point x="448" y="45" type="curve" smooth="yes"></point>
      <point x="566" y="45"></point>
      <point x="571" y="269"></point>
      <point x="571" y="409" type="curve" smooth="yes"></point>
      <point x="571" y="446" type="line" smooth="yes"></point>
      <point x="571" y="522" type="line"></point>
      <point x="553" y="540"></point>
      <point x="524" y="543"></point>
      <point x="499" y="543" type="curve" smooth="yes"></point>
      <point x="491" y="543"></point>
      <point x="476" y="541"></point>
      <point x="460" y="541" type="curve" smooth="yes"></point>
      <point x="435" y="541"></point>
      <point x="411" y="545"></point>
      <point x="411" y="565" type="curve" smooth="yes"></point>
      <point x="411" y="594"></point>
      <point x="437" y="600"></point>
      <point x="460" y="600" type="curve" smooth="yes"></point>
      <point x="489" y="600"></point>
      <point x="649" y="598"></point>
      <point x="649" y="559" type="curve" smooth="yes"></point>
      <point x="649" y="508"></point>
      <point x="626" y="457"></point>
      <point x="626" y="406" type="curve" smooth="yes"></point>
      <point x="626" y="302"></point>
      <point x="634" y="196"></point>
      <point x="634" y="92" type="curve"></point>
      <point x="579" y="37"></point>
      <point x="507" y="-14"></point>
      <point x="425" y="-14" type="curve" smooth="yes"></point>
      <point x="364" y="-14"></point>
      <point x="280" y="-2"></point>
      <point x="241" y="49" type="curve" smooth="yes"></point>
      <point x="184" y="123"></point>
      <point x="155" y="517"></point>
    </contour>
  </outline>
</glyph>
<glyph name="h" format="1">
  <advance width="740"></advance>
  <unicode hex="0068"></unicode>
  <outline>
    <contour>
      <point x="493" y="-2" type="curve"></point>
      <point x="489" y="180"></point>
      <point x="483" y="365"></point>
      <point x="483" y="547" type="curve"></point>
      <point x="478" y="555" type="line"></point>
      <point x="478" y="557"></point>
      <point x="485" y="573"></point>
      <point x="485" y="573" type="curve"></point>
      <point x="485" y="598"></point>
      <point x="482" y="624"></point>
      <point x="478" y="649" type="curve"></point>
      <point x="446" y="657" type="line"></point>
      <point x="434" y="653"></point>
      <point x="419" y="651"></point>
      <point x="405" y="651" type="curve" smooth="yes"></point>
      <point x="360" y="651"></point>
      <point x="319" y="672"></point>
      <point x="274" y="672" type="curve"></point>
      <point x="253" y="664" type="line"></point>
      <point x="253" y="578"></point>
      <point x="247" y="492"></point>
      <point x="247" y="406" type="curve"></point>
      <point x="253" y="397" type="line"></point>
      <point x="253" y="282"></point>
      <point x="265" y="170"></point>
      <point x="265" y="55" type="curve" smooth="yes"></point>
      <point x="265" y="35"></point>
      <point x="258" y="2"></point>
      <point x="231" y="2" type="curve" smooth="yes"></point>
      <point x="186" y="2"></point>
      <point x="186" y="94"></point>
      <point x="186" y="125" type="curve" smooth="yes"></point>
      <point x="186" y="250"></point>
      <point x="190" y="375"></point>
      <point x="190" y="500" type="curve" smooth="yes"></point>
      <point x="190" y="525"></point>
      <point x="190" y="686"></point>
      <point x="184" y="700" type="curve"></point>
      <point x="194" y="720"></point>
      <point x="194" y="811"></point>
      <point x="194" y="836" type="curve" smooth="yes"></point>
      <point x="194" y="996"></point>
      <point x="179" y="1155"></point>
      <point x="179" y="1315" type="curve" smooth="yes"></point>
      <point x="179" y="1333"></point>
      <point x="194" y="1354"></point>
      <point x="214" y="1354" type="curve" smooth="yes"></point>
      <point x="253" y="1354"></point>
      <point x="255" y="1272"></point>
      <point x="255" y="1235" type="curve" smooth="yes"></point>
      <point x="255" y="1069"></point>
      <point x="247" y="895"></point>
      <point x="247" y="735" type="curve" smooth="yes"></point>
      <point x="247" y="712"></point>
      <point x="366" y="711"></point>
      <point x="404" y="711" type="curve" smooth="yes"></point>
      <point x="411" y="711" type="line" smooth="yes"></point>
      <point x="460" y="711"></point>
      <point x="485" y="725"></point>
      <point x="485" y="778" type="curve" smooth="yes"></point>
      <point x="485" y="966"></point>
      <point x="458" y="1155"></point>
      <point x="458" y="1343" type="curve" smooth="yes"></point>
      <point x="458" y="1361"></point>
      <point x="477" y="1374"></point>
      <point x="493" y="1374" type="curve" smooth="yes"></point>
      <point x="499" y="1374"></point>
      <point x="522" y="1364"></point>
      <point x="530" y="1362" type="curve"></point>
      <point x="530" y="1043"></point>
      <point x="556" y="725"></point>
      <point x="556" y="406" type="curve" smooth="yes"></point>
      <point x="556" y="271"></point>
      <point x="559" y="135"></point>
      <point x="569" y="0" type="curve"></point>
      <point x="556" y="-23" type="line"></point>
      <point x="554" y="-5"></point>
      <point x="507" y="-2"></point>
    </contour>
    <contour>
      <point x="427" y="739" type="line"></point>
      <point x="431" y="735" type="line"></point>
      <point x="427" y="735" type="line"></point>
    </contour>
  </outline>
</glyph>
<glyph name="i" format="1">
  <advance width="700"></advance>
  <unicode hex="0069"></unicode>
  <outline>
    <contour>
      <point x="300" y="20" type="curve"></point>
      <point x="288" y="20"></point>
      <point x="276" y="18"></point>
      <point x="266" y="18" type="curve" smooth="yes"></point>
      <point x="246" y="18"></point>
      <point x="220" y="21"></point>
      <point x="210" y="39" type="curve"></point>
      <point x="210" y="57"></point>
      <point x="225" y="60"></point>
      <point x="237" y="74" type="curve"></point>
      <point x="296" y="74" type="line"></point>
      <point x="304" y="82" type="line"></point>
      <point x="306" y="96"></point>
      <point x="311" y="111"></point>
      <point x="311" y="125" type="curve" smooth="yes"></point>
      <point x="311" y="275"></point>
      <point x="296" y="423"></point>
      <point x="296" y="573" type="curve" smooth="yes"></point>
      <point x="296" y="733"></point>
      <point x="306" y="893"></point>
      <point x="306" y="1051" type="curve" smooth="yes"></point>
      <point x="306" y="1131"></point>
      <point x="304" y="1210"></point>
      <point x="296" y="1288" type="curve"></point>
      <point x="276" y="1294"></point>
      <point x="255" y="1294"></point>
      <point x="235" y="1294" type="curve" smooth="yes"></point>
      <point x="219" y="1294"></point>
      <point x="202" y="1290"></point>
      <point x="186" y="1290" type="curve" smooth="yes"></point>
      <point x="161" y="1290"></point>
      <point x="147" y="1300"></point>
      <point x="147" y="1325" type="curve" smooth="yes"></point>
      <point x="147" y="1339"></point>
      <point x="184" y="1350"></point>
      <point x="196" y="1350" type="curve" smooth="yes"></point>
      <point x="235" y="1350"></point>
      <point x="481" y="1349"></point>
      <point x="481" y="1288" type="curve" smooth="yes"></point>
      <point x="481" y="1282"></point>
      <point x="478" y="1276"></point>
      <point x="476" y="1272" type="curve"></point>
      <point x="429" y="1268" type="line"></point>
      <point x="413" y="1280"></point>
      <point x="390" y="1280"></point>
      <point x="370" y="1280" type="curve"></point>
      <point x="360" y="1274" type="line"></point>
      <point x="366" y="1256"></point>
      <point x="366" y="1206"></point>
      <point x="366" y="1165" type="curve" smooth="yes"></point>
      <point x="366" y="1003"></point>
      <point x="360" y="840"></point>
      <point x="360" y="678" type="curve" smooth="yes"></point>
      <point x="360" y="528"></point>
      <point x="374" y="379"></point>
      <point x="374" y="229" type="curve" smooth="yes"></point>
      <point x="374" y="217"></point>
      <point x="372" y="191"></point>
      <point x="372" y="166" type="curve" smooth="yes"></point>
      <point x="372" y="139"></point>
      <point x="374" y="115"></point>
      <point x="378" y="109" type="curve"></point>
      <point x="376" y="104" type="line"></point>
      <point x="376" y="84"></point>
      <point x="407" y="84"></point>
      <point x="421" y="84" type="curve" smooth="yes"></point>
      <point x="441" y="84"></point>
      <point x="461" y="86"></point>
      <point x="481" y="86" type="curve" smooth="yes"></point>
      <point x="501" y="86"></point>
      <point x="542" y="86"></point>
      <point x="542" y="57" type="curve" smooth="yes"></point>
      <point x="542" y="32"></point>
      <point x="522" y="16"></point>
      <point x="497" y="16" type="curve" smooth="yes"></point>
      <point x="474" y="16"></point>
      <point x="452" y="23"></point>
      <point x="429" y="23" type="curve" smooth="yes"></point>
      <point x="398" y="23"></point>
      <point x="383" y="0"></point>
      <point x="356" y="0" type="curve" smooth="yes"></point>
      <point x="338" y="0"></point>
      <point x="308" y="0"></point>
    </contour>
  </outline>
</glyph>
<glyph name="j" format="1">
  <advance width="620"></advance>
  <unicode hex="006A"></unicode>
  <outline>
    <contour>
      <point x="102" y="-197" type="curve" smooth="yes"></point>
      <point x="102" y="-181"></point>
      <point x="237" y="-107"></point>
      <point x="257" y="-84" type="curve" smooth="yes"></point>
      <point x="306" y="-29"></point>
      <point x="323" y="100"></point>
      <point x="323" y="172" type="curve" smooth="yes"></point>
      <point x="323" y="534"></point>
      <point x="304" y="898"></point>
      <point x="304" y="1260" type="curve"></point>
      <point x="292" y="1282" type="line"></point>
      <point x="263" y="1294"></point>
      <point x="143" y="1296"></point>
      <point x="143" y="1335" type="curve" smooth="yes"></point>
      <point x="143" y="1347"></point>
      <point x="176" y="1360"></point>
      <point x="186" y="1360" type="curve" smooth="yes"></point>
      <point x="235" y="1360"></point>
      <point x="528" y="1317"></point>
      <point x="528" y="1274" type="curve" smooth="yes"></point>
      <point x="528" y="1256"></point>
      <point x="511" y="1247"></point>
      <point x="495" y="1247" type="curve" smooth="yes"></point>
      <point x="456" y="1247"></point>
      <point x="423" y="1268"></point>
      <point x="384" y="1268" type="curve" smooth="yes"></point>
      <point x="366" y="1268"></point>
      <point x="366" y="1237"></point>
      <point x="366" y="1227" type="curve" smooth="yes"></point>
      <point x="366" y="942"></point>
      <point x="386" y="660"></point>
      <point x="386" y="377" type="curve" smooth="yes"></point>
      <point x="386" y="152" type="line"></point>
      <point x="374" y="125"></point>
      <point x="374" y="95"></point>
      <point x="374" y="66" type="curve" smooth="yes"></point>
      <point x="374" y="-34"></point>
      <point x="310" y="-252"></point>
      <point x="165" y="-252" type="curve" smooth="yes"></point>
      <point x="151" y="-252" type="line"></point>
      <point x="104" y="-205" type="line"></point>
      <point x="104" y="-203"></point>
      <point x="102" y="-199"></point>
    </contour>
  </outline>
</glyph>
<glyph name="l" format="1">
  <advance width="640"></advance>
  <unicode hex="006C"></unicode>
  <outline>
    <contour>
      <point x="285" y="-18" type="curve"></point>
      <point x="289" y="-20" type="line"></point>
      <point x="262" y="-20"></point>
      <point x="240" y="-27"></point>
      <point x="213" y="-27" type="curve" smooth="yes"></point>
      <point x="190" y="-27"></point>
      <point x="181" y="2"></point>
      <point x="179" y="20" type="curve"></point>
      <point x="183" y="40"></point>
      <point x="183" y="65"></point>
      <point x="183" y="88" type="curve" smooth="yes"></point>
      <point x="183" y="457"></point>
      <point x="195" y="844"></point>
      <point x="195" y="1180" type="curve" smooth="yes"></point>
      <point x="195" y="1205"></point>
      <point x="205" y="1305"></point>
      <point x="205" y="1315" type="curve" smooth="yes"></point>
      <point x="205" y="1325"></point>
      <point x="212" y="1329"></point>
      <point x="220" y="1329" type="curve" smooth="yes"></point>
      <point x="234" y="1329"></point>
      <point x="254" y="1319"></point>
      <point x="254" y="1321" type="curve"></point>
      <point x="254" y="1266"></point>
      <point x="252" y="1214"></point>
      <point x="252" y="1159" type="curve" smooth="yes"></point>
      <point x="252" y="1009"></point>
      <point x="254" y="863"></point>
      <point x="254" y="713" type="curve"></point>
      <point x="252" y="643"></point>
      <point x="248" y="582"></point>
      <point x="248" y="541" type="curve" smooth="yes"></point>
      <point x="248" y="484"></point>
      <point x="252" y="424"></point>
      <point x="252" y="367" type="curve"></point>
      <point x="246" y="350" type="line"></point>
      <point x="248" y="352" type="line"></point>
      <point x="248" y="346"></point>
      <point x="246" y="342"></point>
      <point x="246" y="336" type="curve" smooth="yes"></point>
      <point x="246" y="326"></point>
      <point x="248" y="315"></point>
      <point x="252" y="307" type="curve"></point>
      <point x="246" y="111" type="line" smooth="yes"></point>
      <point x="246" y="98" type="line" smooth="yes"></point>
      <point x="246" y="55"></point>
      <point x="248" y="47"></point>
      <point x="258" y="47" type="curve" smooth="yes"></point>
      <point x="311" y="47"></point>
      <point x="422" y="41"></point>
      <point x="451" y="41" type="curve" smooth="yes"></point>
      <point x="457" y="41" type="line" smooth="yes"></point>
      <point x="471" y="41"></point>
      <point x="488" y="22"></point>
      <point x="488" y="6" type="curve" smooth="yes"></point>
      <point x="488" y="-6"></point>
      <point x="480" y="-18"></point>
      <point x="455" y="-20" type="curve"></point>
      <point x="402" y="-18"></point>
      <point x="342" y="-18"></point>
    </contour>
  </outline>
</glyph>
<glyph name="m" format="1">
  <advance width="1160"></advance>
  <unicode hex="006D"></unicode>
  <outline>
    <contour>
      <point x="954" y="-106" type="curve" smooth="yes"></point>
      <point x="915" y="-106"></point>
      <point x="913" y="-12"></point>
      <point x="913" y="25" type="curve" smooth="yes"></point>
      <point x="913" y="159" type="line" smooth="yes"></point>
      <point x="913" y="314"></point>
      <point x="912" y="468"></point>
      <point x="901" y="621" type="curve" smooth="yes"></point>
      <point x="897" y="676"></point>
      <point x="885" y="731"></point>
      <point x="885" y="786" type="curve" smooth="yes"></point>
      <point x="885" y="870"></point>
      <point x="893" y="956"></point>
      <point x="893" y="1040" type="curve" smooth="yes"></point>
      <point x="893" y="1067"></point>
      <point x="893" y="1112"></point>
      <point x="885" y="1137" type="curve"></point>
      <point x="844" y="1104"></point>
      <point x="666" y="383"></point>
      <point x="639" y="274" type="curve"></point>
      <point x="631" y="237"></point>
      <point x="628" y="115"></point>
      <point x="577" y="115" type="curve" smooth="yes"></point>
      <point x="530" y="115"></point>
      <point x="516" y="139"></point>
      <point x="516" y="182" type="curve" smooth="yes"></point>
      <point x="516" y="286"></point>
      <point x="319" y="1100"></point>
      <point x="268" y="1149" type="curve"></point>
      <point x="252" y="789"></point>
      <point x="223" y="430"></point>
      <point x="223" y="70" type="curve" smooth="yes"></point>
      <point x="223" y="43"></point>
      <point x="223" y="15"></point>
      <point x="225" y="-12" type="curve"></point>
      <point x="219" y="-30"></point>
      <point x="200" y="-39"></point>
      <point x="182" y="-39" type="curve" smooth="yes"></point>
      <point x="174" y="-39"></point>
      <point x="147" y="-20"></point>
      <point x="147" y="-10" type="curve" smooth="yes"></point>
      <point x="147" y="422"></point>
      <point x="211" y="850"></point>
      <point x="211" y="1282" type="curve" smooth="yes"></point>
      <point x="211" y="1296"></point>
      <point x="199" y="1307"></point>
      <point x="199" y="1321" type="curve" smooth="yes"></point>
      <point x="199" y="1348"></point>
      <point x="236" y="1352"></point>
      <point x="254" y="1352" type="curve" smooth="yes"></point>
      <point x="309" y="1352"></point>
      <point x="299" y="1270"></point>
      <point x="305" y="1235" type="curve" smooth="yes"></point>
      <point x="325" y="1124"></point>
      <point x="393" y="1027"></point>
      <point x="422" y="918" type="curve" smooth="yes"></point>
      <point x="445" y="832"></point>
      <point x="473" y="748"></point>
      <point x="489" y="662" type="curve"></point>
      <point x="516" y="608" type="line"></point>
      <point x="536" y="502"></point>
      <point x="573" y="396"></point>
      <point x="575" y="287" type="curve"></point>
      <point x="610" y="340"></point>
      <point x="807" y="1085"></point>
      <point x="827" y="1196" type="curve" smooth="yes"></point>
      <point x="835" y="1237"></point>
      <point x="842" y="1348"></point>
      <point x="901" y="1348" type="curve" smooth="yes"></point>
      <point x="917" y="1348"></point>
      <point x="952" y="1329"></point>
      <point x="952" y="1311" type="curve" smooth="yes"></point>
      <point x="952" y="1194"></point>
      <point x="952" y="453"></point>
      <point x="979" y="408" type="curve"></point>
      <point x="979" y="336"></point>
      <point x="975" y="265"></point>
      <point x="975" y="193" type="curve" smooth="yes"></point>
      <point x="975" y="127"></point>
      <point x="977" y="59"></point>
      <point x="991" y="-4" type="curve" smooth="yes"></point>
      <point x="993" y="-16"></point>
      <point x="999" y="-27"></point>
      <point x="999" y="-39" type="curve" smooth="yes"></point>
      <point x="999" y="-62"></point>
      <point x="983" y="-106"></point>
    </contour>
    <contour>
      <point x="885" y="1149" type="line"></point>
      <point x="883" y="1149" type="line"></point>
      <point x="880" y="1147" type="line"></point>
      <point x="885" y="1145" type="line"></point>
    </contour>
  </outline>
</glyph>
<glyph name="n" format="1">
  <advance width="1000"></advance>
  <unicode hex="006E"></unicode>
  <outline>
    <contour>
      <point x="544" y="418" type="curve"></point>
      <point x="536" y="428"></point>
      <point x="495" y="553"></point>
      <point x="489" y="571" type="curve" smooth="yes"></point>
      <point x="460" y="661"></point>
      <point x="304" y="1143"></point>
      <point x="257" y="1188" type="curve"></point>
      <point x="245" y="1141"></point>
      <point x="241" y="1091"></point>
      <point x="241" y="1044" type="curve" smooth="yes"></point>
      <point x="241" y="989"></point>
      <point x="245" y="936"></point>
      <point x="245" y="883" type="curve" smooth="yes"></point>
      <point x="245" y="850"></point>
      <point x="241" y="817"></point>
      <point x="241" y="784" type="curve" smooth="yes"></point>
      <point x="241" y="737"></point>
      <point x="247" y="688"></point>
      <point x="249" y="641" type="curve"></point>
      <point x="243" y="641" type="line"></point>
      <point x="243" y="586"></point>
      <point x="245" y="295"></point>
      <point x="257" y="264" type="curve"></point>
      <point x="257" y="80" type="line"></point>
      <point x="265" y="66"></point>
      <point x="265" y="53"></point>
      <point x="265" y="37" type="curve" smooth="yes"></point>
      <point x="265" y="17"></point>
      <point x="250" y="-4"></point>
      <point x="227" y="-4" type="curve" smooth="yes"></point>
      <point x="186" y="-4"></point>
      <point x="184" y="79"></point>
      <point x="184" y="106" type="curve" smooth="yes"></point>
      <point x="184" y="151"></point>
      <point x="192" y="195"></point>
      <point x="192" y="240" type="curve" smooth="yes"></point>
      <point x="192" y="437"></point>
      <point x="179" y="632"></point>
      <point x="179" y="829" type="curve" smooth="yes"></point>
      <point x="179" y="950"></point>
      <point x="192" y="1071"></point>
      <point x="192" y="1192" type="curve" smooth="yes"></point>
      <point x="192" y="1218" type="line" smooth="yes"></point>
      <point x="192" y="1264"></point>
      <point x="195" y="1321"></point>
      <point x="229" y="1350" type="curve"></point>
      <point x="235" y="1343" type="line"></point>
      <point x="255" y="1348" type="line"></point>
      <point x="280" y="1338"></point>
      <point x="282" y="1317"></point>
      <point x="288" y="1294" type="curve" smooth="yes"></point>
      <point x="351" y="1030"></point>
      <point x="497" y="782"></point>
      <point x="581" y="520" type="curve" smooth="yes"></point>
      <point x="622" y="391"></point>
      <point x="636" y="244"></point>
      <point x="706" y="125" type="curve"></point>
      <point x="710" y="131" type="line"></point>
      <point x="749" y="502"></point>
      <point x="757" y="874"></point>
      <point x="757" y="1247" type="curve" smooth="yes"></point>
      <point x="757" y="1263"></point>
      <point x="753" y="1280"></point>
      <point x="753" y="1298" type="curve" smooth="yes"></point>
      <point x="753" y="1316"></point>
      <point x="757" y="1341"></point>
      <point x="782" y="1341" type="curve" smooth="yes"></point>
      <point x="811" y="1341"></point>
      <point x="827" y="1307"></point>
      <point x="827" y="1282" type="curve" smooth="yes"></point>
      <point x="827" y="1145" type="line"></point>
      <point x="816" y="1128" type="line"></point>
      <point x="816" y="999"></point>
      <point x="784" y="72"></point>
      <point x="751" y="6" type="curve"></point>
      <point x="744" y="5"></point>
      <point x="729" y="1"></point>
      <point x="716" y="-3" type="curve" smooth="yes"></point>
      <point x="716" y="-4" type="line" smooth="yes"></point>
      <point x="715" y="-3" type="line"></point>
      <point x="705" y="-6"></point>
      <point x="696" y="-8"></point>
      <point x="693" y="-8" type="curve" smooth="yes"></point>
      <point x="658" y="-8"></point>
      <point x="660" y="47"></point>
      <point x="648" y="70" type="curve"></point>
      <point x="650" y="76" type="line"></point>
      <point x="632" y="193"></point>
      <point x="579" y="305"></point>
    </contour>
  </outline>
</glyph>
<glyph name="o" format="1">
  <advance width="820"></advance>
  <unicode hex="006F"></unicode>
  <outline>
    <contour>
      <point x="411" y="-39" type="curve" smooth="yes"></point>
      <point x="175" y="-39"></point>
      <point x="171" y="527"></point>
      <point x="171" y="715" type="curve" smooth="yes"></point>
      <point x="171" y="793"></point>
      <point x="175" y="1376"></point>
      <point x="302" y="1376" type="curve" smooth="yes"></point>
      <point x="327" y="1376"></point>
      <point x="329" y="1358"></point>
      <point x="347" y="1352" type="curve" smooth="yes"></point>
      <point x="470" y="1307"></point>
      <point x="495" y="1354"></point>
      <point x="554" y="1243" type="curve"></point>
      <point x="622" y="1128"></point>
      <point x="640" y="932"></point>
      <point x="640" y="801" type="curve"></point>
      <point x="636" y="791" type="line"></point>
      <point x="636" y="709"></point>
      <point x="640" y="629"></point>
      <point x="640" y="547" type="curve" smooth="yes"></point>
      <point x="640" y="381"></point>
      <point x="628" y="-39"></point>
    </contour>
    <contour>
      <point x="239" y="555" type="curve" smooth="yes"></point>
      <point x="239" y="475"></point>
      <point x="258" y="20"></point>
      <point x="403" y="20" type="curve" smooth="yes"></point>
      <point x="569" y="20"></point>
      <point x="577" y="436"></point>
      <point x="577" y="563" type="curve" smooth="yes"></point>
      <point x="577" y="725"></point>
      <point x="554" y="885"></point>
      <point x="554" y="1047" type="curve"></point>
      <point x="546" y="1063" type="line"></point>
      <point x="550" y="1073" type="line"></point>
      <point x="550" y="1190"></point>
      <point x="476" y="1294"></point>
      <point x="378" y="1294" type="curve" smooth="yes"></point>
      <point x="292" y="1294" type="line" smooth="yes"></point>
      <point x="267" y="1294"></point>
      <point x="257" y="966"></point>
      <point x="245" y="909" type="curve"></point>
      <point x="245" y="846"></point>
      <point x="235" y="780"></point>
      <point x="235" y="717" type="curve" smooth="yes"></point>
      <point x="235" y="664"></point>
      <point x="239" y="608"></point>
    </contour>
  </outline>
</glyph>
<glyph name="p" format="1">
  <advance width="640"></advance>
  <unicode hex="0070"></unicode>
  <outline>
    <contour>
      <point x="198" y="-25" type="line"></point>
      <point x="180" y="71"></point>
      <point x="175" y="172"></point>
      <point x="175" y="270" type="curve" smooth="yes"></point>
      <point x="175" y="397"></point>
      <point x="184" y="524"></point>
      <point x="184" y="651" type="curve"></point>
      <point x="178" y="665"></point>
      <point x="171" y="682"></point>
      <point x="171" y="698" type="curve"></point>
      <point x="191" y="731"></point>
      <point x="192" y="846"></point>
      <point x="192" y="887" type="curve" smooth="yes"></point>
      <point x="192" y="948"></point>
      <point x="190" y="1257"></point>
      <point x="180" y="1284" type="curve"></point>
      <point x="184" y="1294"></point>
      <point x="198" y="1335"></point>
      <point x="210" y="1335" type="curve" smooth="yes"></point>
      <point x="300" y="1335" type="line" smooth="yes"></point>
      <point x="337" y="1335"></point>
      <point x="405" y="1293"></point>
      <point x="434" y="1268" type="curve"></point>
      <point x="483" y="1223"></point>
      <point x="485" y="1089"></point>
      <point x="485" y="1026" type="curve" smooth="yes"></point>
      <point x="485" y="809"></point>
      <point x="478" y="707"></point>
      <point x="249" y="639" type="curve"></point>
      <point x="249" y="395" type="line" smooth="yes"></point>
      <point x="249" y="262"></point>
      <point x="266" y="127"></point>
      <point x="266" y="-4" type="curve" smooth="yes"></point>
      <point x="266" y="-29"></point>
      <point x="254" y="-41"></point>
      <point x="227" y="-41" type="curve"></point>
    </contour>
    <contour>
      <point x="257" y="922" type="curve" smooth="yes"></point>
      <point x="257" y="859"></point>
      <point x="249" y="792"></point>
      <point x="249" y="729" type="curve"></point>
      <point x="262" y="709" type="line"></point>
      <point x="418" y="709"></point>
      <point x="419" y="970"></point>
      <point x="419" y="1079" type="curve" smooth="yes"></point>
      <point x="419" y="1171"></point>
      <point x="409" y="1272"></point>
      <point x="292" y="1272" type="curve" smooth="yes"></point>
      <point x="253" y="1272"></point>
      <point x="247" y="1252"></point>
      <point x="247" y="1217" type="curve" smooth="yes"></point>
      <point x="247" y="1119"></point>
      <point x="257" y="1020"></point>
    </contour>
  </outline>
</glyph>
<glyph name="r" format="1">
  <advance width="660"></advance>
  <unicode hex="0072"></unicode>
  <outline>
    <contour>
      <point x="489" y="-25" type="curve"></point>
      <point x="411" y="61"></point>
      <point x="353" y="709"></point>
      <point x="290" y="709" type="curve" smooth="yes"></point>
      <point x="282" y="709" type="line" smooth="yes"></point>
      <point x="262" y="709"></point>
      <point x="237" y="707"></point>
      <point x="237" y="680" type="curve" smooth="yes"></point>
      <point x="237" y="530"></point>
      <point x="247" y="381"></point>
      <point x="255" y="231" type="curve" smooth="yes"></point>
      <point x="257" y="184"></point>
      <point x="260" y="57"></point>
      <point x="272" y="16" type="curve"></point>
      <point x="257" y="-18" type="line"></point>
      <point x="227" y="-18" type="line"></point>
      <point x="212" y="-2" type="line"></point>
      <point x="196" y="428"></point>
      <point x="179" y="858"></point>
      <point x="179" y="1288" type="curve" smooth="yes"></point>
      <point x="179" y="1321"></point>
      <point x="181" y="1366"></point>
      <point x="224" y="1366" type="curve" smooth="yes"></point>
      <point x="349" y="1366"></point>
      <point x="454" y="1304"></point>
      <point x="454" y="1167" type="curve" smooth="yes"></point>
      <point x="454" y="1018" type="line" smooth="yes"></point>
      <point x="454" y="922"></point>
      <point x="347" y="751"></point>
      <point x="347" y="741" type="curve" smooth="yes"></point>
      <point x="347" y="733"></point>
      <point x="499" y="103"></point>
      <point x="509" y="78" type="curve" smooth="yes"></point>
      <point x="519" y="51"></point>
      <point x="542" y="23"></point>
      <point x="542" y="-6" type="curve" smooth="yes"></point>
      <point x="542" y="-20"></point>
      <point x="535" y="-35"></point>
      <point x="519" y="-35" type="curve" smooth="yes"></point>
      <point x="515" y="-35"></point>
      <point x="495" y="-27"></point>
    </contour>
    <contour>
      <point x="245" y="764" type="curve"></point>
      <point x="249" y="760" type="line"></point>
      <point x="360" y="760"></point>
      <point x="399" y="1016"></point>
      <point x="399" y="1098" type="curve" smooth="yes"></point>
      <point x="399" y="1196"></point>
      <point x="388" y="1313"></point>
      <point x="261" y="1313" type="curve" smooth="yes"></point>
      <point x="243" y="1313"></point>
      <point x="237" y="1272"></point>
      <point x="237" y="1260" type="curve" smooth="yes"></point>
      <point x="237" y="1094"></point>
      <point x="245" y="930"></point>
    </contour>
  </outline>
</glyph>
<glyph name="s" format="1">
  <advance width="660"></advance>
  <unicode hex="0073"></unicode>
  <outline>
    <contour>
      <point x="179" y="25" type="curve"></point>
      <point x="189" y="41" type="line"></point>
      <point x="214" y="39"></point>
      <point x="238" y="27"></point>
      <point x="263" y="27" type="curve" smooth="yes"></point>
      <point x="396" y="27"></point>
      <point x="425" y="258"></point>
      <point x="425" y="356" type="curve" smooth="yes"></point>
      <point x="425" y="651"></point>
      <point x="179" y="795"></point>
      <point x="179" y="1098" type="curve" smooth="yes"></point>
      <point x="179" y="1188"></point>
      <point x="224" y="1378"></point>
      <point x="341" y="1378" type="curve" smooth="yes"></point>
      <point x="368" y="1378"></point>
      <point x="419" y="1352"></point>
      <point x="419" y="1321" type="curve" smooth="yes"></point>
      <point x="419" y="1309"></point>
      <point x="400" y="1305"></point>
      <point x="392" y="1305" type="curve" smooth="yes"></point>
      <point x="376" y="1305"></point>
      <point x="365" y="1317"></point>
      <point x="349" y="1317" type="curve" smooth="yes"></point>
      <point x="259" y="1317"></point>
      <point x="232" y="1158"></point>
      <point x="232" y="1090" type="curve" smooth="yes"></point>
      <point x="232" y="1022"></point>
      <point x="253" y="962"></point>
      <point x="271" y="899" type="curve"></point>
      <point x="286" y="862" type="line"></point>
      <point x="397" y="661"></point>
      <point x="478" y="578"></point>
      <point x="478" y="332" type="curve" smooth="yes"></point>
      <point x="478" y="193"></point>
      <point x="429" y="-20"></point>
      <point x="255" y="-20" type="curve"></point>
      <point x="245" y="-25" type="line"></point>
      <point x="220" y="-21"></point>
      <point x="183" y="-4"></point>
    </contour>
    <contour>
      <point x="406" y="1313" type="curve"></point>
      <point x="406" y="1311" type="line"></point>
      <point x="408" y="1311" type="line"></point>
      <point x="408" y="1313"></point>
      <point x="408" y="1313"></point>
    </contour>
  </outline>
</glyph>
<glyph name="t" format="1">
  <advance width="700"></advance>
  <unicode hex="0074"></unicode>
  <outline>
    <contour>
      <point x="344" y="29" type="line"></point>
      <point x="344" y="78"></point>
      <point x="340" y="129"></point>
      <point x="340" y="178" type="curve" smooth="yes"></point>
      <point x="340" y="203"></point>
      <point x="344" y="225"></point>
      <point x="344" y="250" type="curve" smooth="yes"></point>
      <point x="344" y="266"></point>
      <point x="342" y="283"></point>
      <point x="336" y="299" type="curve"></point>
      <point x="336" y="633"></point>
      <point x="298" y="964"></point>
      <point x="294" y="1298" type="curve"></point>
      <point x="130" y="1298"></point>
      <point x="82" y="1303"></point>
      <point x="82" y="1337" type="curve"></point>
      <point x="88" y="1353"></point>
      <point x="105" y="1360"></point>
      <point x="121" y="1360" type="curve" smooth="yes"></point>
      <point x="215" y="1360"></point>
      <point x="383" y="1341"></point>
      <point x="477" y="1341" type="curve" smooth="yes"></point>
      <point x="489" y="1341"></point>
      <point x="552" y="1343"></point>
      <point x="564" y="1343" type="curve" smooth="yes"></point>
      <point x="582" y="1343"></point>
      <point x="601" y="1340"></point>
      <point x="601" y="1317" type="curve" smooth="yes"></point>
      <point x="601" y="1297"></point>
      <point x="574" y="1290"></point>
      <point x="556" y="1290" type="curve" smooth="yes"></point>
      <point x="519" y="1290"></point>
      <point x="418" y="1298"></point>
      <point x="381" y="1298" type="curve"></point>
      <point x="371" y="1298"></point>
      <point x="371" y="1294"></point>
      <point x="371" y="1253" type="curve" smooth="yes"></point>
      <point x="371" y="852"></point>
      <point x="419" y="452"></point>
      <point x="419" y="51" type="curve" smooth="yes"></point>
      <point x="419" y="31"></point>
      <point x="387" y="12"></point>
      <point x="367" y="12" type="curve"></point>
    </contour>
  </outline>
</glyph>
<glyph name="u" format="1">
  <advance width="651"/>
  <unicode hex="0075"/>
  <outline>
    <contour>
      <point x="313" y="-31" type="curve"/>
      <point x="266" y="-30"/>
      <point x="209" y="6"/>
      <point x="180" y="41" type="curve" smooth="yes"/>
      <point x="92" y="152"/>
      <point x="123" y="1098"/>
      <point x="96" y="1319" type="curve"/>
      <point x="109" y="1348" type="line"/>
      <point x="156" y="1342"/>
      <point x="156" y="1270"/>
      <point x="156" y="1235" type="curve" smooth="yes"/>
      <point x="162" y="692" type="line"/>
      <point x="162" y="547"/>
      <point x="184" y="403"/>
      <point x="184" y="258" type="curve" smooth="yes"/>
      <point x="184" y="158"/>
      <point x="203" y="25"/>
      <point x="338" y="25" type="curve" smooth="yes"/>
      <point x="442" y="25"/>
      <point x="451" y="340"/>
      <point x="461" y="496" type="curve"/>
      <point x="469" y="772"/>
      <point x="475" y="1053"/>
      <point x="475" y="1329" type="curve" smooth="yes"/>
      <point x="475" y="1341"/>
      <point x="471" y="1354"/>
      <point x="471" y="1366" type="curve" smooth="yes"/>
      <point x="471" y="1386"/>
      <point x="490" y="1389"/>
      <point x="506" y="1389" type="curve" smooth="yes"/>
      <point x="539" y="1389"/>
      <point x="541" y="1379"/>
      <point x="541" y="1305" type="curve" smooth="yes"/>
      <point x="541" y="1239"/>
      <point x="538" y="1135"/>
      <point x="528" y="1096" type="curve"/>
      <point x="530" y="1092"/>
      <point x="530" y="1087"/>
      <point x="530" y="1083" type="curve" smooth="yes"/>
      <point x="530" y="1030"/>
      <point x="520" y="973"/>
      <point x="520" y="920" type="curve" smooth="yes"/>
      <point x="520" y="906"/>
      <point x="522" y="893"/>
      <point x="522" y="879" type="curve"/>
      <point x="499" y="592"/>
      <point x="561" y="-31"/>
    </contour>
  </outline>
</glyph>
<glyph name="w" format="1">
  <advance width="847"/>
  <unicode hex="0077"/>
  <outline>
    <contour>
      <point x="418" y="1053" type="curve"/>
      <point x="412" y="969"/>
      <point x="397" y="887"/>
      <point x="397" y="803" type="curve" smooth="yes"/>
      <point x="397" y="615"/>
      <point x="359" y="428"/>
      <point x="334" y="242" type="curve" smooth="yes"/>
      <point x="328" y="201"/>
      <point x="309" y="-43"/>
      <point x="264" y="-43" type="curve" smooth="yes"/>
      <point x="194" y="-43"/>
      <point x="196" y="342"/>
      <point x="176" y="520" type="curve"/>
      <point x="162" y="633"/>
      <point x="139" y="745"/>
      <point x="131" y="858" type="curve" smooth="yes"/>
      <point x="121" y="999"/>
      <point x="127" y="1178"/>
      <point x="78" y="1311" type="curve"/>
      <point x="86" y="1325"/>
      <point x="97" y="1327"/>
      <point x="111" y="1327" type="curve" smooth="yes"/>
      <point x="158" y="1327"/>
      <point x="150" y="1202"/>
      <point x="152" y="1171" type="curve" smooth="yes"/>
      <point x="181" y="858"/>
      <point x="240" y="546"/>
      <point x="246" y="231" type="curve"/>
      <point x="258" y="198"/>
      <point x="254" y="148"/>
      <point x="268" y="121" type="curve"/>
      <point x="270" y="121" type="line"/>
      <point x="305" y="367"/>
      <point x="344" y="614"/>
      <point x="352" y="864" type="curve" smooth="yes"/>
      <point x="354" y="930"/>
      <point x="355" y="995"/>
      <point x="365" y="1061" type="curve" smooth="yes"/>
      <point x="371" y="1104"/>
      <point x="379" y="1145"/>
      <point x="379" y="1188" type="curve"/>
      <point x="416" y="1204" type="line"/>
      <point x="432" y="1204"/>
      <point x="451" y="1194"/>
      <point x="451" y="1176" type="curve" smooth="yes"/>
      <point x="451" y="1170"/>
      <point x="448" y="1163"/>
      <point x="446" y="1159" type="curve"/>
      <point x="509" y="944"/>
      <point x="539" y="721"/>
      <point x="555" y="498" type="curve" smooth="yes"/>
      <point x="563" y="394"/>
      <point x="559" y="284"/>
      <point x="596" y="186" type="curve"/>
      <point x="637" y="301"/>
      <point x="655" y="845"/>
      <point x="655" y="995" type="curve" smooth="yes"/>
      <point x="655" y="1101"/>
      <point x="682" y="1207"/>
      <point x="682" y="1313" type="curve" smooth="yes"/>
      <point x="682" y="1325"/>
      <point x="680" y="1338"/>
      <point x="674" y="1348" type="curve"/>
      <point x="674" y="1373"/>
      <point x="695" y="1380"/>
      <point x="715" y="1380" type="curve" smooth="yes"/>
      <point x="735" y="1380"/>
      <point x="743" y="1379"/>
      <point x="743" y="1356" type="curve" smooth="yes"/>
      <point x="743" y="1327"/>
      <point x="741" y="1297"/>
      <point x="733" y="1268" type="curve"/>
      <point x="737" y="1255" type="line"/>
      <point x="723" y="1192"/>
      <point x="719" y="1129"/>
      <point x="719" y="1063" type="curve" smooth="yes"/>
      <point x="719" y="1055"/>
      <point x="719" y="1046"/>
      <point x="723" y="1040" type="curve"/>
      <point x="711" y="999" type="line"/>
      <point x="717" y="985" type="line"/>
      <point x="713" y="977"/>
      <point x="711" y="969"/>
      <point x="711" y="961" type="curve" smooth="yes"/>
      <point x="711" y="947"/>
      <point x="715" y="934"/>
      <point x="717" y="922" type="curve"/>
      <point x="711" y="913" type="line"/>
      <point x="711" y="796"/>
      <point x="700" y="678"/>
      <point x="692" y="561" type="curve" smooth="yes"/>
      <point x="686" y="467"/>
      <point x="682" y="373"/>
      <point x="670" y="279" type="curve" smooth="yes"/>
      <point x="664" y="238"/>
      <point x="647" y="197"/>
      <point x="647" y="156" type="curve" smooth="yes"/>
      <point x="647" y="117"/>
      <point x="645" y="-68"/>
      <point x="592" y="-68" type="curve" smooth="yes"/>
      <point x="555" y="-68"/>
      <point x="559" y="-2"/>
      <point x="557" y="23" type="curve" smooth="yes"/>
      <point x="549" y="121"/>
      <point x="524" y="219"/>
      <point x="512" y="317" type="curve" smooth="yes"/>
      <point x="498" y="426"/>
      <point x="463" y="1008"/>
    </contour>
    <contour>
      <point x="596" y="178" type="curve"/>
      <point x="596" y="176" type="line"/>
      <point x="598" y="176" type="line"/>
      <point x="598" y="178"/>
      <point x="598" y="178"/>
    </contour>
  </outline>
</glyph>
<glyph name="x" format="1">
  <advance width="640"></advance>
  <unicode hex="0078"></unicode>
  <outline>
    <contour>
      <point x="178" y="18" type="curve" smooth="yes"></point>
      <point x="178" y="219"></point>
      <point x="292" y="454"></point>
      <point x="292" y="659" type="curve" smooth="yes"></point>
      <point x="292" y="725"></point>
      <point x="192" y="1214"></point>
      <point x="163" y="1247" type="curve"></point>
      <point x="163" y="1251"></point>
      <point x="165" y="1258"></point>
      <point x="165" y="1262" type="curve" smooth="yes"></point>
      <point x="165" y="1287"></point>
      <point x="147" y="1297"></point>
      <point x="147" y="1315" type="curve" smooth="yes"></point>
      <point x="147" y="1327"></point>
      <point x="174" y="1335"></point>
      <point x="184" y="1335" type="curve" smooth="yes"></point>
      <point x="221" y="1335"></point>
      <point x="228" y="1241"></point>
      <point x="229" y="1212" type="curve"></point>
      <point x="276" y="1085"></point>
      <point x="284" y="946"></point>
      <point x="323" y="817" type="curve"></point>
      <point x="343" y="858"></point>
      <point x="376" y="1121"></point>
      <point x="380" y="1180" type="curve" smooth="yes"></point>
      <point x="382" y="1203"></point>
      <point x="393" y="1346"></point>
      <point x="407" y="1350" type="curve" smooth="yes"></point>
      <point x="417" y="1352"></point>
      <point x="430" y="1354"></point>
      <point x="440" y="1356" type="curve"></point>
      <point x="458" y="1331" type="line"></point>
      <point x="429" y="1288"></point>
      <point x="425" y="1202"></point>
      <point x="425" y="1151" type="curve" smooth="yes"></point>
      <point x="425" y="1143"></point>
      <point x="427" y="1134"></point>
      <point x="427" y="1126" type="curve"></point>
      <point x="425" y="1124" type="line"></point>
      <point x="409" y="964"></point>
      <point x="350" y="807"></point>
      <point x="350" y="645" type="curve" smooth="yes"></point>
      <point x="350" y="598"></point>
      <point x="452" y="143"></point>
      <point x="472" y="92" type="curve" smooth="yes"></point>
      <point x="480" y="74"></point>
      <point x="497" y="53"></point>
      <point x="497" y="33" type="curve" smooth="yes"></point>
      <point x="497" y="15"></point>
      <point x="482" y="4"></point>
      <point x="466" y="4" type="curve" smooth="yes"></point>
      <point x="458" y="4"></point>
      <point x="448" y="6"></point>
      <point x="440" y="10" type="curve"></point>
      <point x="401" y="176"></point>
      <point x="356" y="340"></point>
      <point x="325" y="508" type="curve"></point>
      <point x="282" y="445"></point>
      <point x="278" y="168"></point>
      <point x="243" y="70" type="curve"></point>
      <point x="247" y="62"></point>
      <point x="247" y="53"></point>
      <point x="247" y="45" type="curve" smooth="yes"></point>
      <point x="247" y="27"></point>
      <point x="241" y="-6"></point>
      <point x="216" y="-6" type="curve" smooth="yes"></point>
      <point x="200" y="-6"></point>
      <point x="178" y="-5"></point>
    </contour>
  </outline>
</glyph>
<glyph name="y" format="1">
  <advance width="561"/>
  <unicode hex="0079"/>
  <outline>
    <contour>
      <point x="279" y="-8" type="curve"/>
      <point x="297" y="37"/>
      <point x="299" y="287"/>
      <point x="299" y="350" type="curve" smooth="yes"/>
      <point x="299" y="454"/>
      <point x="287" y="562"/>
      <point x="283" y="666" type="curve"/>
      <point x="270" y="692" type="line"/>
      <point x="276" y="717" type="line"/>
      <point x="239" y="817"/>
      <point x="78" y="1233"/>
      <point x="76" y="1307" type="curve"/>
      <point x="104" y="1329" type="line"/>
      <point x="151" y="1321"/>
      <point x="258" y="821"/>
      <point x="297" y="811" type="curve"/>
      <point x="305" y="848" type="line"/>
      <point x="301" y="858" type="line"/>
      <point x="340" y="905"/>
      <point x="387" y="1360"/>
      <point x="446" y="1360" type="curve" smooth="yes"/>
      <point x="458" y="1360"/>
      <point x="473" y="1353"/>
      <point x="473" y="1339" type="curve" smooth="yes"/>
      <point x="473" y="1304"/>
      <point x="446" y="1221"/>
      <point x="436" y="1186" type="curve" smooth="yes"/>
      <point x="393" y="1034"/>
      <point x="336" y="873"/>
      <point x="336" y="723" type="curve"/>
      <point x="340" y="713"/>
      <point x="346" y="700"/>
      <point x="346" y="688" type="curve" smooth="yes"/>
      <point x="346" y="668"/>
      <point x="334" y="652"/>
      <point x="334" y="629" type="curve" smooth="yes"/>
      <point x="334" y="566"/>
      <point x="350" y="505"/>
      <point x="350" y="442" type="curve" smooth="yes"/>
      <point x="350" y="333"/>
      <point x="352" y="226"/>
      <point x="352" y="117" type="curve" smooth="yes"/>
      <point x="352" y="108" type="line" smooth="yes"/>
      <point x="352" y="69"/>
      <point x="350" y="-31"/>
      <point x="309" y="-31" type="curve" smooth="yes"/>
      <point x="299" y="-31"/>
      <point x="283" y="-16"/>
    </contour>
  </outline>
</glyph>
